#N canvas 335 148 450 546 10;
#X text 48 15 The objects [slide] [tog] and [num] can save their values
automatically inside an abstaction. To make this work \, 1: Put the
objects inside an abstraction \, giving them all the same group name.
2: create the "psave" object with the same group name (its only argument).
;
#X obj 118 165 example-instrument 20.893 55 23 1;
#X floatatom 118 327 5 0 0 0 - - -, f 5;
#X floatatom 178 327 5 0 0 0 - - -, f 5;
#X floatatom 258 327 5 0 0 0 - - -, f 5;
#X floatatom 318 327 5 0 0 0 - - -, f 5;
#X text 49 93 That's all you have to do! Change the values on this
abstraction \, save and open the patch again \, and you'll see the
same values. Then look inside to see the [psave] object.;
#X text 50 363 Note that the values are saved in the creation argument
of the abstraction. I've left it visible here so that you can see.
;
#X floatatom 65 455 5 0 0 0 - - -, f 5;
#X msg 65 474 a \$1;
#X floatatom 115 455 5 0 0 0 - - -, f 5;
#X msg 115 474 b \$1;
#X obj 65 496 s eg1-;
#X obj 115 496 s eg1-;
#X text 48 412 Also \, remember that you can send relative values to
the two sliders like this (these will not be saved):;
#X connect 1 0 2 0;
#X connect 1 1 3 0;
#X connect 1 2 4 0;
#X connect 1 3 5 0;
#X connect 8 0 9 0;
#X connect 9 0 12 0;
#X connect 10 0 11 0;
#X connect 11 0 13 0;
