#N canvas 65 53 1301 715 10;
#X obj 124 48 context :X 17 :Z 14 :a ' # = | ' :d 2 :h 1 :i -3 -3 -2
0 -3 0 -5 0 -2 0 -3 0 0 0 -2 0 1 :j 3 4 0 :n ks :p -1 :R 63.36 :x 1
2 3 5 7 9 11 13 15 17 :ID 1;
#X msg 291 31 :a # =;
#X obj 155 157 ks2 ks -96 100 -31 54 -38 32 21 68 24 17.378 47 4.57088
-12 58 42 100 1.5;
#X obj 146 357 cyclone/tanh~;
#X obj 69 230 receive ks-;
#X obj 69 252 osc~;
#X obj 69 274 *~ 0.1;
#X obj 146 389 hip~ 100;
#X obj 120 699 dac~;
#X obj 147 418 compressor 0.329743 0.340298 0 10 447.959 0.265306 0.545423
100;
#X obj 493 209 f-env bass 100 26 5.24807 7 145 0 4 1 0 37;
#N canvas 699 264 450 398 bass 0;
#X obj 205 262 outlet~;
#X obj 206 49 f-env bass-pitch 43.6516 55 1.58489 4 6 75 362 1 1 0
;
#X obj 206 20 receive bass-;
#X obj 205 236 osc~;
#X text 49 300 I'm trying to think of a way in which two or more envelopes
can be grouped into one parameter. It would be really sweet if the
single message that Context is sending could alter both filters at
once.;
#X connect 1 0 3 0;
#X connect 2 0 1 0;
#X connect 3 0 0 0;
#X restore 603 176 pd bass;
#X obj 404 29 context :H 56 :X 17 :Y 6 :Z 22 :a ' d (~ * 100) | ' :d
2 :i 1 0 0 0 0 0 0 0 0 0 0 0 0 0 0 0 3 :n bass :x 2 3 4 5 6 7 8 9 10
11 12 14 15 16 17 :ID 3 6 obj -35 -93 list split 1 11 obj -1 -65 ols
\$1 inlet outlet-x outlet-y mouse settings cutsom 9 obj 361 -103 presets
\$1 :x :y :d :m 112 obj 0 27 content :H 6 :x2 0.002 :y1 0.000933333
:y2 0.0019 0 0 0 0 0.482761 0.551727 0.620693 0.689659 0.689659 0.689659
0.620693 0.620693 0.620693 0.58621 0.551727 0.551727 0.482761 0.46552
0.448278 0.431037 0.413795 0.275864 0.275864 0.206898 0.137932 0.137932
0.0689659 0 -0.0689659 -0.103449 -0.137932 -0.172415 -0.206898 -0.275864
-0.275864 -0.34483 -0.34483 -0.413795 -0.413795 -0.413795 -0.413795
-0.413795 -0.482761 -0.482761 -0.482761 -0.482761 -0.482761 -0.482761
-0.482761 -0.482761 -0.482761 -0.482761 -0.482761 -0.482761 -0.482761
-0.482761 -0.482761 -0.482761 -0.482761 -0.482761 -0.482761 -0.482761
-0.413795 -0.413795 -0.413795 -0.275864 -0.241381 -0.206898 -0.137932
-0.103449 -0.0689659 0 0.0689659 0.0689659 0.206898 0.206898 0.275864
0.34483 0.34483 0.413795 0.413795 0.413795 0.459773 0.50575 0.551727
0.620693 0.689659 0.689659 0.689659 0.758625 0.827591 0.862074 0.896557
0.896557 0.896557 0.896557 0.896557 0.862074 0.827591 0 4 obj 0 -20
mover 5 connect 0 0 1 0 5 connect 0 1 2 1 5 connect 0 2 2 2 5 connect
0 3 2 3 5 connect 0 4 2 4 5 connect 1 1 2 0;
#X obj 411 343 cyclone/tanh~;
#X obj 411 393 *~ 0.1;
#X obj 412 367 hip~ 100;
#X obj 275 113 scaler major c 3;
#X msg 52 190 0;
#X obj 797 233 f-env snare 100 29 22.9087 8 122 0 1.91 1 0 47;
#X obj 1021 140 noise~;
#X obj 1013 224 bp~ 1200 3;
#X obj 1024 202 bp~ 600 2;
#X obj 732 9 context :X 17 :Z 23 :a ' r (¬ - 1 *20) | ' :d 2 :j 4
0 0 :n snare :p -1 :P -1 :x 1 2 4 5 7 9 13 14 16 :y 1 :ID 2;
#X obj 733 85 context :X 17 :Z 23 :a ' r (¬ - 1 *20) | ' :d 2 :j 2
0 0 :n snare :p -1 :P -1 :x 1 2 4 5 8 9 11 13 14 16 :y 1 :ID 4;
#X obj 1026 177 bp~ 12000 6;
#X obj 408 -20 bng 15 250 50 0 empty empty empty 17 7 0 10 -262144
-1 -1;
#X connect 2 0 3 0;
#X connect 3 0 7 0;
#X connect 4 0 5 0;
#X connect 5 0 6 0;
#X connect 6 0 3 0;
#X connect 7 0 9 0;
#X connect 9 0 8 0;
#X connect 9 0 8 1;
#X connect 10 0 13 0;
#X connect 11 0 10 2;
#X connect 13 0 15 0;
#X connect 14 0 9 0;
#X connect 15 0 14 0;
#X connect 17 0 5 0;
#X connect 18 0 3 0;
#X connect 19 0 20 0;
#X connect 19 0 21 0;
#X connect 19 0 24 0;
#X connect 20 0 18 2;
#X connect 21 0 18 2;
#X connect 24 0 18 2;
#X connect 25 0 0 7;
