#N canvas 281 255 450 421 10;
#X obj 109 120 slide param1 a eg1 50 90 1 1;
#X text 107 297 slide param1 a eg1 50 90 1 1;
#X obj 138 120 slide param2 b eg1 1200 -1200 0 0;
#X text 141 320 slide param2 b eg1 1200 -1200 0 0;
#X obj 171 128 num value1 eg1;
#X text 323 132 num value1 eg1;
#X obj 172 164 tog on/off eg1;
#X text 327 168 tog on/off eg1;
#X obj 98 53 inlet;
#X obj 137 73 inlet;
#X obj 270 366 psave eg1;
#X obj 171 74 inlet;
#X obj 222 78 inlet;
#X obj 94 260 outlet;
#X obj 149 267 outlet;
#X obj 204 255 outlet;
#X obj 249 258 outlet;
#X connect 0 0 13 0;
#X connect 2 0 14 0;
#X connect 4 0 15 0;
#X connect 6 0 16 0;
#X connect 8 0 0 0;
#X connect 9 0 2 0;
#X connect 11 0 4 0;
#X connect 12 0 6 0;
#X coords 0 -1 1 1 160 150 1 100 100;
