#N canvas 276 168 938 687 10;
#X obj 95 113 context :X 9 :Z 28 :a 4 :d 2 :m ' [#]1|2|3|4 ' :n ex1
:S 2 :x 1 3 6 8 9;
#X obj 147 219 context :X 9 :Z 28 :a 4 :d 2 :m ' [#]7|6|5|4|3 ' :n
ex1 :S 2 :x 3 5 6 7 8 9;
#X obj 256 313 context :X 9 :Z 15 :a 4 :d 1 :m ' [#]9|8|7|8 ' :n ex1
:S 1 :x 1 2 4 6;
#X obj 136 424 context :X 9 :Z 15 :a 4 :d 1 :m ' [#]11|12 ' :n ex1
:S 1 :x 1 2 4 5 7 8;
#X obj 359 414 context :X 9 :Z 14 :d 1 :m ' [#]7|6|5|6|7|8 ' :n ex1
:x 1 2 3 4 5 6;
#X obj 140 544 context :Z 17 :a 4 :d 0.5 :m ' [#]4|3|2 ' :n ex1 :x
1 2 3;
#X obj 38 308 context :X 9 :Z 15 :a 4 :d 3 :m ' [#]2|1|0|-1 ' :n ex1
:x 1 3 5 7;
#X msg 377 39 \; c-all stop;
#X obj 305 550 context :X 17 :Z 11 :d 2 :m ' # -3 ' :n ex1 :x 3 4 6
7 9 11 12 14 15;
#X obj 377 166 receive ex1-;
#N canvas 744 423 450 300 how 0;
#X restore 483 237 pd how are the notes sent?;
#X obj 372 108 scaler blues major db 5;
#X obj 682 194 vradio 15 1 0 8 empty empty empty 0 -8 0 10 -262144
-1 -1 2;
#X text 700 194 Is this what Context sounds like?;
#X text 701 209 What's making the sound?;
#X text 703 225 How do I make / delete connections?;
#X text 703 240 What are the inlets and outlets;
#X text 703 255 How do I make and delete connections?;
#X text 704 270 How are the messages being sent?;
#X text 703 284 How are the notes being calculated?;
#X text 704 298 Can I change the timing?;
#X floatatom 343 75 5 0 0 0 - - -, f 5;
#X text 577 66 7 7 8 ? 7 6 5 4 3 3;
#X obj 377 191 glock~;
#X obj 515 358 textbox ex01q;
#X obj 130 43 context :a ' a | b | c | d | e | ' :e 5 :f 1 :n ' here
' :ID 9;
#X connect 0 2 6 1;
#X connect 1 5 2 3;
#X connect 2 0 3 5;
#X connect 2 5 4 2;
#X connect 3 6 8 6;
#X connect 4 1 8 2;
#X connect 4 5 0 6;
#X connect 5 2 3 3;
#X connect 6 0 5 0;
#X connect 6 4 1 3;
#X connect 9 0 23 0;
#X connect 12 0 24 0;
#X connect 21 0 11 0;
