#N canvas 483 223 450 300 10;
#X obj 126 65 inlet;
#X obj 126 87 t a b;
#X obj 176 65 inlet;
#X obj 176 87 t a b;
#X msg 203 113 1;
#X obj 153 114 t f;
#X obj 111 158 outlet;
#X obj 203 159 outlet;
#X obj 236 65 inlet;
#X obj 236 87 t a b;
#X obj 296 65 inlet;
#X obj 296 87 t a b;
#X msg 263 113 2;
#X msg 323 113 3;
#X connect 0 0 1 0;
#X connect 1 0 6 0;
#X connect 1 1 5 0;
#X connect 2 0 3 0;
#X connect 3 0 6 0;
#X connect 3 1 4 0;
#X connect 4 0 7 0;
#X connect 5 0 7 0;
#X connect 8 0 9 0;
#X connect 9 0 6 0;
#X connect 9 1 12 0;
#X connect 10 0 11 0;
#X connect 11 0 6 0;
#X connect 11 1 13 0;
#X connect 12 0 7 0;
#X connect 13 0 7 0;
