#N canvas 635 93 553 687 10;
#X obj 116 7 inlet;
#X obj 298 238 text define \$1-\$2-st;
#X obj 137 511 text set \$1-\$2-st;
#X obj 103 456 list split 1;
#X obj 123 433 - 1;
#X obj 88 480 receive \$1-\$3ibang;
#X obj 298 193 receive \$1-\$2e;
#X msg 298 215 click;
#X obj 75 254 receive \$1-\$3incr;
#X obj 212 120 f;
#X obj 212 143 + 1;
#X obj 231 369 -;
#X obj 231 324 f;
#X obj 231 391 until;
#X obj 212 187 !=;
#X obj 185 209 demux;
#X obj 123 369 list split 1;
#X obj 123 391 route float;
#X obj 186 413 t b;
#X obj 212 165 t f f f;
#X obj 255 324 text fromlist \$1-\$2-st;
#X obj 251 298 list;
#X obj 231 346 t f f;
#X obj 212 276 t a b a;
#X obj 84 345 t b a a;
#X obj 266 456 text tolist \$1-\$2-st;
#X obj 266 547 s \$1-\$4;
#X obj 266 525 list append ';
#X obj 266 428 receive \$1-mess\$4;
#X obj 186 435 t f f;
#X msg 155 413 1;
#X obj 185 95 list-abs/list-map;
#X obj 297 141 symbol \;;
#X obj 212 252 list append \;;
#X obj 297 117 t b b;
#X obj 297 95 sel | \;;
#X obj 266 480 list-abs/list-map;
#X obj 378 480 sel \;;
#X msg 378 549 symbol |;
#X obj 378 526 cyclone/onebang 1;
#X obj 399 503 t a b;
#X obj 266 503 list prepend ';
#X msg 116 73 1;
#X obj 116 97 s \$1-*.*on;
#X obj 250 70 s \$1-\$2*.off;
#X obj 36 121 t b f;
#X obj 63 143 makefilename %d-dfetch;
#X obj 36 185 send;
#X obj 36 164 symbol \$1-\$2retr;
#X obj 185 70 t a b b b;
#X obj 142 73 t f;
#X obj 407 104 receive \$1-\$2retr;
#X obj 407 126 makefilename %d-\$2-st;
#X obj 375 82 receive \$1-\$2*.off;
#X obj 375 104 f \$1;
#X obj 407 148 s \$1-\$2rest;
#X obj 116 29 relay *.* *.;
#X obj 2 95 list split 1;
#X obj 2 72 t a a;
#X obj 116 51 t b a;
#X connect 0 0 56 0;
#X connect 3 1 2 0;
#X connect 4 0 2 1;
#X connect 5 0 2 0;
#X connect 6 0 7 0;
#X connect 7 0 1 0;
#X connect 8 0 12 1;
#X connect 8 0 2 1;
#X connect 9 0 10 0;
#X connect 10 0 19 0;
#X connect 11 0 13 0;
#X connect 12 0 22 0;
#X connect 13 0 2 0;
#X connect 14 0 15 1;
#X connect 15 0 24 0;
#X connect 15 1 33 0;
#X connect 16 0 17 0;
#X connect 17 0 4 0;
#X connect 17 0 30 0;
#X connect 17 1 18 0;
#X connect 18 0 29 0;
#X connect 19 0 14 0;
#X connect 19 1 11 1;
#X connect 19 2 9 1;
#X connect 21 0 20 0;
#X connect 22 0 11 0;
#X connect 22 1 2 1;
#X connect 23 0 36 0;
#X connect 23 1 12 0;
#X connect 23 2 21 0;
#X connect 24 0 25 0;
#X connect 24 1 3 0;
#X connect 24 2 16 0;
#X connect 25 0 36 0;
#X connect 27 0 26 0;
#X connect 28 0 25 0;
#X connect 29 0 2 1;
#X connect 29 1 3 1;
#X connect 30 0 3 1;
#X connect 31 0 15 0;
#X connect 31 1 35 0;
#X connect 32 0 31 1;
#X connect 33 0 23 0;
#X connect 34 0 32 0;
#X connect 34 1 9 0;
#X connect 35 0 34 0;
#X connect 35 1 34 0;
#X connect 35 2 31 1;
#X connect 36 0 41 0;
#X connect 36 1 37 0;
#X connect 37 0 39 0;
#X connect 37 1 40 0;
#X connect 38 0 36 1;
#X connect 39 0 38 0;
#X connect 40 0 36 1;
#X connect 40 1 39 1;
#X connect 41 0 27 0;
#X connect 42 0 43 0;
#X connect 45 0 48 0;
#X connect 45 1 46 0;
#X connect 46 0 47 1;
#X connect 48 0 47 0;
#X connect 49 0 31 0;
#X connect 49 1 19 0;
#X connect 49 2 50 0;
#X connect 49 3 44 0;
#X connect 50 0 43 0;
#X connect 51 0 52 0;
#X connect 52 0 55 0;
#X connect 53 0 54 0;
#X connect 54 0 52 0;
#X connect 56 0 59 0;
#X connect 56 1 58 0;
#X connect 56 2 49 0;
#X connect 57 1 45 0;
#X connect 58 0 57 0;
#X connect 58 1 41 0;
#X connect 59 0 42 0;
#X connect 59 1 41 0;
