#N canvas 726 223 450 349 10;
#X obj 176 12 keyname;
#X obj 176 159 pack f s;
#X obj 176 180 cyclone/zl rev;
#X obj 176 134 change;
#X obj 221 112 sel ff;
#X msg 273 161 set -1;
#X obj 254 136 t s b s;
#X obj 215 35 t s s;
#X obj 143 225 spigot;
#X obj 176 201 route Control_L Control_R;
#X obj 143 247 del 50;
#X obj 143 269 t b b;
#X obj 143 317 iemguts/canvasdelete 1;
#X obj 170 293 s \$1-mess:\$2;
#X obj 215 60 list fromsymbol;
#X obj 215 85 route 19;
#X connect 0 0 3 0;
#X connect 0 1 7 0;
#X connect 1 0 2 0;
#X connect 2 0 9 0;
#X connect 3 0 1 0;
#X connect 4 1 6 0;
#X connect 5 0 3 0;
#X connect 6 0 1 1;
#X connect 6 1 5 0;
#X connect 6 2 4 1;
#X connect 7 0 14 0;
#X connect 7 1 4 0;
#X connect 8 0 10 0;
#X connect 9 0 8 1;
#X connect 9 1 8 1;
#X connect 10 0 11 0;
#X connect 11 0 12 0;
#X connect 11 1 13 0;
#X connect 14 0 15 0;
#X connect 15 0 8 0;
