#N canvas 87 85 1276 687 10;
#X obj 437 -135 pack f \$1;
#X msg 425 510 0;
#X obj 272 -182 spigot;
#X obj 299 -110 +;
#X obj 272 -159 sel 0;
#X msg 272 -135 -1;
#X obj 321 56 spigot;
#X obj 208 11 spigot;
#X obj 551 -134 change;
#X msg 495 91 color \$1 \$2 \$3;
#X msg 527 150 color \$1 \$1 \$1;
#X obj 671 225 demux;
#X obj 789 68 del 400;
#X msg 698 247 color \$2 \$2 \$1;
#X obj 321 32 sel 1;
#X obj 283 57 sel 0;
#X obj 679 -86 > 0;
#X obj 321 93 f \$1;
#X obj 809 -25 inlet;
#X obj 437 -112 outlet;
#X msg 671 268 color \$2 \$1 \$3;
#X msg 560 180 color \$1 \$1 \$4;
#X obj 341 -143 outlet;
#X obj 341 -168 pack f \$1;
#X obj 482 579 s \$2-\$3\$1r;
#X obj 208 -12 moses 1;
#X obj 789 91 demux;
#X obj 816 112 demux;
#X obj 809 3 t b b;
#X obj 495 -15 list 1 1 1;
#X obj 551 -156 != 0;
#X obj 495 34 demux 0 1 2;
#X msg 699 -149 1;
#X obj 660 -172 t f b b;
#X msg 972 48 2;
#X obj 915 17 t f b b;
#X obj 510 -204 t b a;
#X obj 974 212 inlet size;
#N canvas 571 232 540 511 size 0;
#X obj 158 164 expr log10($f1);
#X obj 158 185 int;
#X msg 123 303 label \$1;
#X obj 123 273 l2s;
#X obj 316 137 * 0.5;
#X obj 100 89 t f f f;
#X obj 202 207 <= 0;
#X obj 158 229 +;
#X obj 158 141 abs;
#X obj 119 115 route 0;
#X msg 119 142 2;
#X obj 158 207 + 2;
#X obj 296 188 t f f;
#X obj 323 215 * 2;
#X obj 296 265 * 0.4;
#X obj 277 68 inlet size;
#X obj 61 43 inlet label;
#X obj 123 329 outlet label;
#X obj 277 320 outlet pos;
#X obj 61 65 route 0;
#X msg 61 123 label;
#X obj 296 166 / 2;
#X obj 277 295 pack 12 2 6 12;
#X obj 158 252 change;
#X obj 277 90 f 12;
#X obj 158 274 t b f;
#X obj 368 249 ./config;
#X obj 277 112 t f f f f;
#X obj 464 249 - 2;
#X obj 413 275 clip 0 10;
#X connect 0 0 1 0;
#X connect 1 0 11 0;
#X connect 2 0 17 0;
#X connect 3 0 2 0;
#X connect 4 0 22 2;
#X connect 5 0 3 0;
#X connect 5 1 9 0;
#X connect 5 2 6 0;
#X connect 6 0 7 1;
#X connect 7 0 23 0;
#X connect 8 0 0 0;
#X connect 9 0 10 0;
#X connect 9 1 8 0;
#X connect 10 0 23 0;
#X connect 11 0 7 0;
#X connect 12 0 14 0;
#X connect 12 1 13 0;
#X connect 13 0 26 0;
#X connect 14 0 22 1;
#X connect 15 0 24 0;
#X connect 16 0 19 0;
#X connect 19 0 20 0;
#X connect 19 1 5 0;
#X connect 20 0 17 0;
#X connect 21 0 12 0;
#X connect 22 0 18 0;
#X connect 23 0 25 0;
#X connect 24 0 27 0;
#X connect 25 0 24 0;
#X connect 25 1 21 1;
#X connect 26 0 22 3;
#X connect 26 1 29 0;
#X connect 27 0 22 0;
#X connect 27 1 21 0;
#X connect 27 2 4 0;
#X connect 27 3 28 0;
#X connect 28 0 29 2;
#X connect 29 0 22 3;
#X restore 480 337 pd size;
#X msg 519 363 size \$1 \, label_pos \$2 \$3 \, label_font 1 \$4;
#X obj 1059 2 t f f f;
#X obj 314 -231 t f f f f;
#X obj 208 33 t f f f f;
#X obj 495 67 demux;
#X obj 527 128 demux;
#X obj 660 -194 sel 2;
#X obj 687 -126 t b f;
#X msg 531 244 color \$1 \$1 \$5;
#X obj 437 -158 t f f;
#X obj 852 -275 inlet bank;
#X obj 510 -226 receive \$2-primary-col;
#X obj 314 -266 receive \$2-\$5\$1;
#X obj 272 -207 receive \$2-scroll;
#X obj 354 32 receive \$2-seqtart;
#X obj 1087 61 receive \$2-colmod-off;
#X obj 208 -33 receive \$2-\$1-togsel\$3;
#X obj 425 488 receive \$2-togsoff\$3;
#X obj 847 67 receive \$2-nexton;
#X obj 828 42 receive \$2-delfrac;
#X obj 437 -179 receive \$2-\$3\$1;
#X text 856 -204 in: i value \, scroll \, bank \, togset \, seqstart
\,;
#X obj 915 -31 receive \$2-\$3-colmod-\$1;
#X obj 1059 -27 receive \$2-xym\$3;
#X obj 1087 85 spigot \$4;
#X obj 111 -117 receive \$2-\$3-\$1-bolo;
#X obj 111 -92 sel 0;
#X obj 138 -68 t b b f;
#X obj 495 7 demux;
#X obj 138 -46 t f;
#X obj 390 128 demux;
#X obj 551 -111 t b f f f f;
#X msg 390 150 color \$6 \$2 \$3;
#X msg 444 195 color \$6 \$6 \$4;
#X obj 772 -64 print lab;
#X obj 417 173 demux;
#X obj 679 -61 t b f f;
#X msg 417 219 color \$6 \$6 \$6;
#X connect 0 0 19 0;
#X connect 1 0 24 0;
#X connect 2 0 4 0;
#X connect 3 0 41 0;
#X connect 4 0 5 0;
#X connect 4 1 3 0;
#X connect 5 0 3 0;
#X connect 6 0 17 0;
#X connect 7 0 42 0;
#X connect 8 0 70 0;
#X connect 9 0 24 0;
#X connect 10 0 24 0;
#X connect 11 0 20 0;
#X connect 11 1 13 0;
#X connect 12 0 26 0;
#X connect 13 0 24 0;
#X connect 14 0 6 0;
#X connect 15 0 17 0;
#X connect 16 0 75 0;
#X connect 17 0 24 0;
#X connect 18 0 28 0;
#X connect 20 0 24 0;
#X connect 21 0 24 0;
#X connect 23 0 22 0;
#X connect 25 0 7 0;
#X connect 25 1 42 0;
#X connect 26 0 29 0;
#X connect 26 1 27 0;
#X connect 27 0 29 0;
#X connect 28 0 12 0;
#X connect 28 1 35 0;
#X connect 29 0 67 0;
#X connect 30 0 8 0;
#X connect 31 0 43 0;
#X connect 31 1 47 0;
#X connect 31 2 11 0;
#X connect 32 0 31 1;
#X connect 33 1 29 0;
#X connect 33 2 32 0;
#X connect 34 0 31 1;
#X connect 35 0 31 1;
#X connect 35 1 29 0;
#X connect 35 2 34 0;
#X connect 36 0 29 0;
#X connect 36 1 29 1;
#X connect 37 0 38 1;
#X connect 38 0 24 0;
#X connect 38 1 39 0;
#X connect 39 0 24 0;
#X connect 40 1 27 1;
#X connect 40 2 63 1;
#X connect 41 0 3 1;
#X connect 41 1 23 0;
#X connect 41 2 38 0;
#X connect 41 3 30 0;
#X connect 42 0 2 1;
#X connect 42 1 45 0;
#X connect 42 2 7 1;
#X connect 42 3 15 0;
#X connect 43 0 9 0;
#X connect 43 1 44 0;
#X connect 44 0 10 0;
#X connect 44 1 21 0;
#X connect 45 0 33 0;
#X connect 45 1 46 0;
#X connect 46 0 29 0;
#X connect 46 1 31 1;
#X connect 47 0 24 0;
#X connect 48 0 0 0;
#X connect 48 1 16 0;
#X connect 49 0 41 0;
#X connect 50 0 36 0;
#X connect 51 0 41 0;
#X connect 52 0 2 0;
#X connect 53 0 6 1;
#X connect 54 0 63 0;
#X connect 55 0 25 0;
#X connect 56 0 1 0;
#X connect 57 0 26 1;
#X connect 58 0 12 1;
#X connect 59 0 48 0;
#X connect 61 0 35 0;
#X connect 62 0 40 0;
#X connect 63 0 29 0;
#X connect 64 0 65 0;
#X connect 65 0 29 0;
#X connect 65 1 66 0;
#X connect 66 0 68 0;
#X connect 66 1 29 0;
#X connect 66 2 67 1;
#X connect 67 0 31 0;
#X connect 67 1 69 0;
#X connect 68 0 67 1;
#X connect 69 0 71 0;
#X connect 69 1 74 0;
#X connect 70 0 29 0;
#X connect 70 1 43 1;
#X connect 70 2 14 0;
#X connect 70 3 11 1;
#X connect 70 4 69 1;
#X connect 71 0 24 0;
#X connect 72 0 24 0;
#X connect 74 0 76 0;
#X connect 74 1 72 0;
#X connect 75 0 29 0;
#X connect 75 1 44 1;
#X connect 75 2 74 1;
#X connect 76 0 24 0;
