#N canvas 336 14 450 689 10;
#X obj 136 3 inlet;
#X obj 201 649 send;
#X obj 194 175 s \$1-togsoff\$2;
#X obj 228 545 sel dum;
#X obj 228 620 symbol;
#X obj 321 222 list length;
#X obj 321 245 s \$1-\$2lk-l;
#X obj 136 27 route 0;
#X obj 267 523 makefilename \$1-y%dr;
#X obj 261 594 makefilename \$1-x%dr;
#X obj 228 478 makefilename \$1-\$2%dr;
#X obj 201 25 receive \$1-shifted\$2;
#X obj 267 500 receive \$1-ysize-2;
#X obj 261 568 receive \$1-xsize-2;
#X obj 297 267 receive \$1-\$3-refeed;
#X obj 228 306 list;
#X obj 297 289 t a b;
#X msg 324 312 1;
#X obj 228 328 cyclone/iter;
#X obj 228 262 spigot;
#X obj 201 219 cyclone/iter;
#X obj 201 389 sp01 1;
#X obj 201 196 t a a;
#X obj 201 241 t f f;
#X obj 228 283 t b f b;
#X obj 228 349 sel;
#X obj 175 153 t a b b;
#X obj 136 50 t b b;
#X obj 354 175 v \$1-\$2cor;
#X obj 354 197 +;
#X msg 354 129 1;
#X obj 175 49 route = - +;
#X obj 201 433 demux 0 1 2;
#X obj 201 411 t f f;
#X obj 238 72 t a b;
#X obj 196 73 t a b;
#X obj 217 128 t a b;
#X msg 265 128 1;
#X obj 354 153 t b f f;
#X obj 232 456 t b;
#X msg 244 151 2;
#X obj 201 455 t b;
#X obj 201 477 t f;
#X obj 223 97 t f;
#X connect 0 0 7 0;
#X connect 3 0 4 0;
#X connect 3 1 1 1;
#X connect 4 0 1 1;
#X connect 5 0 6 0;
#X connect 7 0 27 0;
#X connect 7 1 31 0;
#X connect 8 0 3 1;
#X connect 9 0 4 1;
#X connect 10 0 3 0;
#X connect 11 0 26 0;
#X connect 12 0 8 0;
#X connect 13 0 9 0;
#X connect 14 0 16 0;
#X connect 15 0 18 0;
#X connect 16 0 15 1;
#X connect 16 1 17 0;
#X connect 17 0 19 1;
#X connect 18 0 25 0;
#X connect 19 0 24 0;
#X connect 20 0 23 0;
#X connect 21 0 33 0;
#X connect 22 0 20 0;
#X connect 22 1 5 0;
#X connect 23 0 21 0;
#X connect 23 1 19 0;
#X connect 24 0 15 0;
#X connect 24 1 25 1;
#X connect 24 2 21 2;
#X connect 25 0 21 1;
#X connect 26 0 22 0;
#X connect 26 1 2 0;
#X connect 26 2 30 0;
#X connect 27 0 2 0;
#X connect 27 1 38 0;
#X connect 28 0 29 0;
#X connect 29 0 6 0;
#X connect 30 0 38 0;
#X connect 31 0 26 0;
#X connect 31 1 35 0;
#X connect 31 2 36 0;
#X connect 31 3 34 0;
#X connect 32 0 41 0;
#X connect 32 1 39 0;
#X connect 32 2 1 0;
#X connect 33 0 32 0;
#X connect 33 1 10 0;
#X connect 34 0 22 0;
#X connect 34 1 37 0;
#X connect 35 0 22 0;
#X connect 35 1 43 0;
#X connect 36 0 22 0;
#X connect 36 1 40 0;
#X connect 37 0 32 1;
#X connect 38 0 28 0;
#X connect 38 1 29 1;
#X connect 38 2 32 1;
#X connect 39 0 1 0;
#X connect 40 0 32 1;
#X connect 41 0 42 0;
#X connect 42 0 1 0;
#X connect 43 0 32 1;
