#N canvas 136 158 450 455 10;
#X obj 112 122 unpack f f;
#X obj 112 194 moses 0;
#X obj 179 194 moses 0;
#X obj 293 167 unpack f f;
#X msg 112 239 1;
#X msg 179 239 1;
#X obj 147 263 +;
#X obj 147 285 sel 2;
#X msg 210 239 0;
#X msg 144 239 0;
#X obj 220 100 unpack f f;
#X obj 112 144 -;
#X obj 179 145 -;
#X msg 190 388 vis 0;
#X obj 190 365 del 1;
#X obj 147 340 t b b b;
#X msg 197 316 1;
#X obj 112 100 receive \$1-openup;
#X obj 293 145 receive \$1-pixsize;
#X obj 112 216 moses \$2;
#X obj 179 216 moses \$3;
#X obj 197 340 s \$1-opened;
#X obj 190 411 iemguts/sendcanvas \$4;
#X obj 108 368 outlet;
#X obj 220 78 receive \$1-\$5pos;
#X obj 139 2 inlet;
#X obj 139 24 t b l b;
#X obj 147 311 demux;
#X msg 178 46 1;
#X obj 233 388 outlet;
#X obj 142 69 t f f f;
#X obj 112 169 switch-\$6 \$1 x;
#X obj 179 169 switch-\$6 \$1 y;
#X connect 0 0 11 0;
#X connect 0 1 12 0;
#X connect 1 0 9 0;
#X connect 1 1 19 0;
#X connect 2 0 8 0;
#X connect 2 1 20 0;
#X connect 3 0 19 1;
#X connect 3 1 20 1;
#X connect 4 0 6 0;
#X connect 5 0 6 1;
#X connect 6 0 7 0;
#X connect 7 0 27 0;
#X connect 8 0 6 1;
#X connect 9 0 6 0;
#X connect 10 0 11 1;
#X connect 10 1 12 1;
#X connect 11 0 31 0;
#X connect 12 0 32 0;
#X connect 13 0 22 0;
#X connect 14 0 13 0;
#X connect 15 0 23 0;
#X connect 15 1 14 0;
#X connect 15 2 16 0;
#X connect 16 0 21 0;
#X connect 17 0 0 0;
#X connect 18 0 3 0;
#X connect 19 0 4 0;
#X connect 19 1 9 0;
#X connect 20 0 5 0;
#X connect 20 1 8 0;
#X connect 24 0 10 0;
#X connect 25 0 26 0;
#X connect 26 0 30 0;
#X connect 26 1 0 0;
#X connect 26 2 28 0;
#X connect 27 0 15 0;
#X connect 27 1 29 0;
#X connect 28 0 30 0;
#X connect 30 0 27 1;
#X connect 30 1 31 1;
#X connect 30 2 32 1;
#X connect 31 0 1 0;
#X connect 32 0 2 0;
