#N canvas 335 118 450 297 10;
#X obj 11 37 inlet;
#X obj 11 77 route all All ALL linear Linear LINEAR Random random RANDOM
;
#X msg 11 110 0;
#X msg 193 115 1;
#X msg 329 115 2;
#X obj 193 162 s \$1-presetr;
#X connect 0 0 1 0;
#X connect 1 0 2 0;
#X connect 1 1 2 0;
#X connect 1 2 2 0;
#X connect 1 3 3 0;
#X connect 1 4 3 0;
#X connect 1 5 3 0;
#X connect 1 6 4 0;
#X connect 1 7 4 0;
#X connect 1 8 4 0;
#X connect 1 9 5 0;
#X connect 2 0 5 0;
#X connect 3 0 5 0;
#X connect 4 0 5 0;
