#N canvas 346 219 546 337 10;
#X obj 301 209 t f;
#X msg 268 157 1;
#X obj 336 209 + 1;
#X obj 250 129 t f b f b b;
#X obj 250 37 - 1;
#X obj 272 107 receive \$1-\$4mode;
#X obj 250 13 receive \$1-\$2-messon;
#X obj 250 61 mod \$5;
#X obj 255 287 text get \$1-\$4-st;
#X obj 255 311 outlet;
#X obj 352 152 s \$1-\$2bnoffy;
#X obj 324 180 receive \$1-\$3bnoffy;
#X obj 57 152 inlet;
#X obj 57 210 t b a;
#X obj 89 236 text set \$1-\$4-st;
#X obj 57 263 s \$1-mess:\$7;
#X obj 209 203 t f f;
#X obj 57 186 spigot \$8;
#X obj 223 82 t f f;
#X obj 352 129 t f;
#X obj 301 260 outlet;
#X obj 301 236 zexy/pack f 1 \$2 \$1;
#X obj 209 14 inlet;
#X obj 144 267 t b b;
#X obj 171 289 t f;
#X obj 171 311 s \$1-\$3moffxy;
#X obj 84 125 receive \$1-\$2moffxy;
#X msg 144 289 1;
#X obj 209 36 t f b;
#X obj 354 260 receive \$1-\$2rest;
#X obj 209 107 clip 1 \$5;
#X obj 209 129 - 1;
#X obj 209 178 switch-\$10 \$1;
#X obj 289 37 receive \$1-\$2size-2;
#X obj 209 156 demux;
#X obj 260 82 receive \$1-rlson;
#X connect 0 0 21 0;
#X connect 1 0 21 0;
#X connect 2 0 21 1;
#X connect 3 0 23 0;
#X connect 3 1 1 0;
#X connect 3 2 2 0;
#X connect 3 3 0 0;
#X connect 3 4 19 0;
#X connect 4 0 7 0;
#X connect 5 0 30 2;
#X connect 6 0 4 0;
#X connect 7 0 18 0;
#X connect 8 0 9 0;
#X connect 11 0 21 0;
#X connect 12 0 17 0;
#X connect 13 0 15 0;
#X connect 13 1 14 0;
#X connect 16 0 14 1;
#X connect 16 1 8 0;
#X connect 17 0 13 0;
#X connect 18 0 34 0;
#X connect 18 1 3 0;
#X connect 19 0 10 0;
#X connect 21 0 20 0;
#X connect 22 0 28 0;
#X connect 23 0 27 0;
#X connect 23 1 24 0;
#X connect 24 0 25 0;
#X connect 26 0 17 1;
#X connect 27 0 17 1;
#X connect 28 0 30 0;
#X connect 28 1 23 0;
#X connect 29 0 8 3;
#X connect 30 0 31 0;
#X connect 31 0 34 0;
#X connect 32 0 16 0;
#X connect 33 0 7 1;
#X connect 34 0 32 0;
#X connect 35 0 34 1;
