#N canvas 687 89 560 626 10;
#X obj 188 328 inlet;
#X obj 188 498 outlet;
#X obj 188 356 list append;
#X obj 161 163 s \$1-lstr;
#X obj 231 258 route \$3;
#X obj 224 74 list trim;
#X obj 251 308 t a a;
#X obj 231 187 list prepend \$4;
#X obj 231 211 route 0 1;
#X obj 256 233 outlet;
#X obj 300 233 inlet;
#X obj 161 51 route float;
#X obj 161 74 change;
#X obj 251 283 list prepend :\$2;
#X obj 215 426 t f;
#X msg 271 162 set -1;
#X obj 271 119 sp01 1;
#X obj 224 96 t a b;
#X obj 271 141 t b b;
#X obj 161 96 t f b;
#X obj 292 330 s \$1-sv-:\$2;
#X obj 238 51 inlet;
#X obj 161 28 receive \$1-:\$2;
#X obj 188 453 demux;
#X obj 293 308 s \$1-und-n;
#X obj 250 330 t a a;
#X obj 215 380 receive \$1-\$2-fetch;
#X obj 215 402 t b b b s;
#X msg 249 426 1;
#X obj 215 476 send;
#X obj 161 135 t b a a b;
#X connect 0 0 2 0;
#X connect 2 0 23 0;
#X connect 4 0 25 0;
#X connect 5 0 17 0;
#X connect 6 0 25 0;
#X connect 6 1 24 0;
#X connect 7 0 8 0;
#X connect 8 0 4 0;
#X connect 8 1 9 0;
#X connect 10 0 25 0;
#X connect 11 0 12 0;
#X connect 11 1 5 0;
#X connect 12 0 19 0;
#X connect 13 0 6 0;
#X connect 14 0 23 1;
#X connect 15 0 12 0;
#X connect 16 0 18 0;
#X connect 17 0 30 0;
#X connect 17 1 16 0;
#X connect 18 0 15 0;
#X connect 18 1 16 1;
#X connect 19 0 30 0;
#X connect 19 1 16 2;
#X connect 21 0 12 0;
#X connect 22 0 11 0;
#X connect 23 0 1 0;
#X connect 23 1 29 0;
#X connect 25 0 2 1;
#X connect 25 1 20 0;
#X connect 26 0 27 0;
#X connect 27 0 14 0;
#X connect 27 1 2 0;
#X connect 27 2 28 0;
#X connect 27 3 29 1;
#X connect 28 0 23 1;
#X connect 30 0 3 0;
#X connect 30 1 7 0;
#X connect 30 2 13 0;
#X connect 30 3 2 0;
