#N canvas 755 199 450 300 10;
#X obj 136 62 inlet;
#X obj 136 127 outlet n1;
#X obj 207 127 outlet n2;
#X obj 188 38 inlet;
#X obj 136 89 sel 4;
#X obj 237 197 s \$1-valref;
#X obj 237 172 v \$1-ysize-2;
#X obj 173 62 receive \$1-xsize-21;
#X connect 0 0 4 0;
#X connect 4 0 6 0;
#X connect 4 1 1 0;
#X connect 6 0 5 0;
#X connect 7 0 4 1;
