#N canvas 399 225 557 440 10;
#X obj 213 140 f;
#X obj 194 281 send;
#X obj 233 93 outlet;
#X obj 228 117 inlet;
#X obj 167 22 inlet;
#X obj 215 257 makefilename \$1-%d-togsel\$2;
#X obj 167 44 sel 1;
#X obj 230 235 send \$1-\$2-messon;
#X obj 333 102 receive \$1-mouseone;
#X obj 288 80 receive \$1-\$2dir;
#X obj 194 68 t f b f;
#X obj 288 102 spigot;
#X obj 288 124 +;
#X obj 213 162 t f f f b;
#X obj 264 185 f \$3;
#X obj 264 210 s \$1-messb;
#X obj 288 146 t f f b;
#X connect 0 0 13 0;
#X connect 3 0 0 1;
#X connect 4 0 6 0;
#X connect 5 0 1 1;
#X connect 6 1 10 0;
#X connect 8 0 11 1;
#X connect 9 0 11 0;
#X connect 10 0 1 0;
#X connect 10 1 0 0;
#X connect 10 2 2 0;
#X connect 11 0 12 0;
#X connect 12 0 16 0;
#X connect 13 0 5 0;
#X connect 13 1 7 0;
#X connect 13 2 12 1;
#X connect 13 3 14 0;
#X connect 14 0 15 0;
#X connect 16 0 7 0;
#X connect 16 1 12 1;
#X connect 16 2 14 0;
