#N canvas 300 274 992 482 10;
#X obj 105 162 bng 15 250 50 0 \$0to \$0tor t 5 7 0 10 -262144 -1 -1
;
#X symbolatom 149 161 0 0 0 0 - #0-tsymr #0-tsyms;
#X floatatom 167 182 3 0 0 0 connection #0-con2r #0-con2, f 3;
#X obj 242 182 bng 15 250 50 0 \$0connect \$0connectr c 5 7 0 10 -262144
-1 -1;
#X obj 297 182 bng 15 250 50 0 \$0disconnect \$0disconnectr d 5 7 0
10 -262144 -1 -1;
#X obj 18 212 inlet;
#X obj 101 158 cnv 2 283 2 ss rr empty 30 30 0 14 -233017 -66577 0
;
#X floatatom 217 182 3 0 0 0 no. #0-nor #0-nos, f 3;
#X text 394 166 liam.goodacre@gmail.com;
#N canvas 404 97 608 686 connect 0;
#X obj -8 41 l2s;
#X obj -8 -6 r \$0from;
#X obj -8 63 s \$0-fsymr;
#X obj 192 101 l2s;
#X obj 192 123 s \$0-tsymr;
#X obj 192 54 r \$0to;
#X obj -8 93 r \$0-fsyms;
#X obj -8 115 s2l;
#X obj -8 137 t a a;
#X obj 19 160 list length;
#X obj -121 52 r \$0connect;
#X obj -130 505 mod;
#X obj -130 440 f;
#X obj -130 462 + 1;
#X obj -61 182 t b b;
#X msg -34 216 0;
#X obj 19 182 t f f f;
#X obj 58 214 == 1;
#X obj -163 477 l;
#X obj -10 409 demux;
#X obj 17 435 f;
#X obj 53 408 r \$0-con1;
#X obj -10 435 f;
#X obj 17 458 + 1;
#X obj 17 480 - 1;
#X obj 69 591 pack f f f f;
#X obj 192 175 s2l;
#X obj 192 153 r \$0-tsyms;
#X obj 192 197 t a a;
#X obj 219 220 list length;
#X obj 219 242 t f f f;
#X obj 258 271 == 1;
#X obj 4 318 moses 0;
#X obj 17 502 +;
#X obj 43 363 t b b b b b b;
#X obj 150 450 f;
#X obj 150 472 + 1;
#X obj 117 487 l;
#X obj 250 420 demux;
#X obj 277 445 f;
#X obj 250 448 f;
#X obj 277 468 + 1;
#X obj 277 490 - 1;
#X obj 277 512 +;
#X obj 292 421 r \$0-con2;
#X obj 43 342 until;
#X obj -130 484 - 1;
#X obj -130 527 + 1;
#X obj 150 515 mod;
#X obj 150 494 - 1;
#X obj 150 537 + 1;
#X obj 19 232 max;
#X obj 19 206 t b f;
#X obj 4 298 f;
#X obj -121 74 t b b;
#X obj -121 134 t b b;
#X obj -121 112 r \$0disconnect;
#X msg -147 179 0;
#X msg -100 181 1;
#X obj 37 632 demux;
#X msg 37 659 connect \$1 \$2 \$3 \$4;
#X msg 64 681 disconnect \$1 \$2 \$3 \$4;
#X obj 19 274 r \$0-nos;
#X obj 19 254 s \$0-nor;
#X obj -8 19 iemguts/canvasselect 2;
#X obj 192 79 iemguts/canvasselect 2;
#X obj 37 702 iemguts/sendcanvas 2;
#X obj -163 550 cyclone/zl nth;
#X obj 117 564 cyclone/zl nth;
#X connect 0 0 2 0;
#X connect 1 0 64 0;
#X connect 3 0 4 0;
#X connect 5 0 65 0;
#X connect 6 0 7 0;
#X connect 7 0 8 0;
#X connect 8 0 18 1;
#X connect 8 1 9 0;
#X connect 9 0 16 0;
#X connect 10 0 54 0;
#X connect 11 0 47 0;
#X connect 12 0 13 0;
#X connect 13 0 12 1;
#X connect 13 0 46 0;
#X connect 14 0 53 0;
#X connect 14 1 15 0;
#X connect 15 0 12 1;
#X connect 15 0 20 1;
#X connect 15 0 35 1;
#X connect 15 0 39 1;
#X connect 16 0 51 0;
#X connect 16 1 11 1;
#X connect 16 2 17 0;
#X connect 17 0 19 1;
#X connect 18 0 67 0;
#X connect 19 0 22 0;
#X connect 19 1 20 0;
#X connect 20 0 23 0;
#X connect 21 0 22 1;
#X connect 21 0 33 1;
#X connect 22 0 25 1;
#X connect 23 0 20 1;
#X connect 23 0 24 0;
#X connect 24 0 33 0;
#X connect 25 0 59 0;
#X connect 26 0 28 0;
#X connect 27 0 26 0;
#X connect 28 0 37 1;
#X connect 28 1 29 0;
#X connect 29 0 30 0;
#X connect 30 0 52 0;
#X connect 30 1 48 1;
#X connect 30 2 31 0;
#X connect 31 0 38 1;
#X connect 32 1 45 0;
#X connect 33 0 25 1;
#X connect 34 0 18 0;
#X connect 34 1 12 0;
#X connect 34 2 19 0;
#X connect 34 3 37 0;
#X connect 34 4 35 0;
#X connect 34 5 38 0;
#X connect 35 0 36 0;
#X connect 36 0 35 1;
#X connect 36 0 49 0;
#X connect 37 0 68 0;
#X connect 38 0 40 0;
#X connect 38 1 39 0;
#X connect 39 0 41 0;
#X connect 40 0 25 3;
#X connect 41 0 39 1;
#X connect 41 0 42 0;
#X connect 42 0 43 0;
#X connect 43 0 25 3;
#X connect 44 0 40 1;
#X connect 44 0 43 1;
#X connect 45 0 34 0;
#X connect 46 0 11 0;
#X connect 47 0 67 1;
#X connect 48 0 50 0;
#X connect 49 0 48 0;
#X connect 50 0 68 1;
#X connect 51 0 63 0;
#X connect 52 0 51 0;
#X connect 52 1 51 1;
#X connect 53 0 32 0;
#X connect 54 0 14 0;
#X connect 54 1 57 0;
#X connect 55 0 14 0;
#X connect 55 1 58 0;
#X connect 56 0 55 0;
#X connect 57 0 59 1;
#X connect 58 0 59 1;
#X connect 59 0 60 0;
#X connect 59 1 61 0;
#X connect 60 0 66 0;
#X connect 61 0 66 0;
#X connect 62 0 53 1;
#X connect 64 0 0 0;
#X connect 65 0 3 0;
#X connect 67 0 25 0;
#X connect 68 0 25 2;
#X restore 55 212 pd connect;
#N canvas 445 82 672 686 control 0;
#X obj 113 28 route key;
#X obj 113 102 list split 1;
#X obj 147 124 list trim;
#X obj 140 183 spigot;
#X obj 113 49 t a a;
#X obj 147 147 route Shift_L Shift_R;
#X obj 377 55 l2s;
#X obj 377 77 s \$0-fsymr;
#X obj 407 105 l2s;
#X obj 407 127 s \$0-tsymr;
#X obj 504 57 s \$0connectr;
#X obj 536 79 s \$0disconnectr;
#X obj 437 56 s \$0-con1r;
#X obj 470 78 s \$0-con2r;
#X obj 559 103 s \$0-nor;
#X obj 140 327 s \$0fromr;
#X obj 210 327 s \$0connectr;
#X obj 203 418 s \$0disconnectr;
#X obj 175 376 s \$0tor;
#X obj 377 9 inlet;
#X obj 140 208 route 1;
#X obj 140 232 route list;
#X obj 208 172 t f;
#X obj 260 -18 loadbang;
#X obj 260 4 t b f;
#X obj 287 30 s alloff;
#X obj 171 5 r alloff;
#X msg 256 30 1;
#X obj 113 6 spigot;
#X obj 230 287 s \$0-<r;
#X obj 252 307 s \$0->r;
#X obj 587 136 s \$0->s;
#X text 233 235 F T C D \, . V ^;
#X obj 282 286 s \$0-^vr;
#X obj 335 349 s \$0-?r;
#X obj 113 -18 iemguts/receivecanvas 2;
#X obj 140 258 route 70 84 67 68 60 62 86 94 63;
#X obj 560 164 s \$0-<s;
#X obj 308 324 demux;
#X obj 308 369 s \$0-??r;
#X obj 337 286 r \$0-mode2;
#X obj 113 80 cyclone/zl rev;
#X msg 606 206 1;
#X obj 636 206 t f;
#X obj 614 237 s \$0-^vc;
#X obj 377 33 route f t c1 c2 connect disconnect n < > v ^;
#X connect 0 0 4 0;
#X connect 1 1 2 0;
#X connect 2 0 5 0;
#X connect 3 0 20 0;
#X connect 4 0 41 0;
#X connect 4 1 3 0;
#X connect 5 0 22 0;
#X connect 5 1 22 0;
#X connect 6 0 7 0;
#X connect 8 0 9 0;
#X connect 19 0 45 0;
#X connect 20 0 21 0;
#X connect 21 0 36 0;
#X connect 22 0 3 1;
#X connect 23 0 24 0;
#X connect 24 0 27 0;
#X connect 24 1 25 0;
#X connect 26 0 28 1;
#X connect 27 0 28 1;
#X connect 28 0 0 0;
#X connect 35 0 28 0;
#X connect 36 0 15 0;
#X connect 36 1 18 0;
#X connect 36 2 16 0;
#X connect 36 3 17 0;
#X connect 36 4 29 0;
#X connect 36 5 30 0;
#X connect 36 6 33 0;
#X connect 36 7 33 0;
#X connect 36 8 38 0;
#X connect 38 0 39 0;
#X connect 38 1 34 0;
#X connect 40 0 38 1;
#X connect 41 0 1 0;
#X connect 42 0 44 0;
#X connect 43 0 44 0;
#X connect 45 0 6 0;
#X connect 45 1 8 0;
#X connect 45 2 12 0;
#X connect 45 3 13 0;
#X connect 45 4 10 0;
#X connect 45 5 11 0;
#X connect 45 6 14 0;
#X connect 45 7 37 0;
#X connect 45 8 31 0;
#X connect 45 9 42 0;
#X connect 45 10 43 0;
#X restore 18 235 pd control;
#X symbolatom 148 121 0 0 0 0 - #0-fsymr #0-fsyms;
#X floatatom 168 142 3 0 0 0 connection #0-con1r #0-con1, f 3;
#X obj 105 123 bng 15 250 50 0 \$0from \$0fromr f 5 7 0 10 -262144
-1 -1;
#X obj 101 117 cnv 2 283 2 ss rr empty 30 30 0 14 -233017 -66577 0
;
#X obj 193 178 cnv 2 191 2 ss rr empty 30 30 0 14 -233017 -66577 0
;
#X obj 192 178 cnv 2 2 21 ss rr empty 30 30 0 14 -233017 -66577 0;
#X obj 534 103 bng 15 250 50 0 \$0-<s \$0-<r < 5 7 0 10 -262144 -1
-1;
#N canvas 699 97 570 686 shift 0;
#X msg 23 90 outlets;
#X obj 144 191 iemguts/canvasconnections 1;
#X obj 165 22 f;
#X obj 165 46 until;
#X obj 165 68 f;
#X obj 191 68 + 1;
#X msg 101 141 outconnect \$1;
#X msg 179 -5 1;
#X msg 151 -5 1;
#X obj 144 215 list split 1;
#X obj 178 238 demux;
#X obj 205 441 pack f f f f;
#X obj 205 337 t a a;
#X obj 205 362 unpack f f f f;
#X obj 359 401 list prepend disconnect;
#X obj 359 423 list trim;
#X obj 359 445 iemguts/sendcanvas 2;
#X obj 317 66 unpack f f f;
#X obj 205 463 list prepend connect;
#X obj 205 284 spigot;
#X obj 97 -29 t b b b b b b b b f f f f;
#X obj 317 -2 route bang;
#X msg 317 22 1;
#X obj 317 90 demux;
#X msg 111 -72 1;
#X obj 344 115 * -1;
#X obj 393 -2 loadbang;
#X msg 393 23 0 0 0;
#X obj 169 269 -;
#X obj 165 90 +;
#X obj 351 141 t f f;
#X obj 386 88 t f f;
#X obj 158 300 == 0;
#X obj 125 324 spigot;
#X msg 191 -72 0;
#X obj 313 411 +;
#X obj 286 388 demux;
#X msg 50 111 inlets;
#X msg 192 140 inconnect \$1;
#X obj 165 118 demux;
#X obj 23 65 demux;
#X obj 50 5 r \$0-inout;
#X obj 106 -195 r \$0-<s;
#X obj 156 -195 r \$0->s;
#X obj 398 230 r \$0-poss;
#X obj 77 -144 t b a b;
#X obj 157 -144 t b a b;
#X obj 398 254 t f f f f;
#X obj 449 301 == 3;
#X obj 432 280 == 2;
#X obj 415 301 == 1;
#X obj 398 280 == 0;
#X obj 263 411 +;
#X obj 236 388 demux;
#X obj 213 411 +;
#X obj 186 388 demux;
#X obj 163 411 +;
#X obj 136 388 demux;
#X obj 314 217 t f f f f;
#X obj 317 44 list-abs/list-pad;
#X obj 205 262 list-abs/list-extend;
#X obj 205 309 cyclone/zl iter 4;
#X connect 0 0 1 0;
#X connect 1 0 9 0;
#X connect 2 0 3 0;
#X connect 3 0 4 0;
#X connect 4 0 5 0;
#X connect 4 0 29 0;
#X connect 5 0 4 1;
#X connect 6 0 1 0;
#X connect 7 0 10 1;
#X connect 8 0 19 1;
#X connect 9 1 10 0;
#X connect 10 0 28 0;
#X connect 10 1 60 0;
#X connect 11 0 18 0;
#X connect 12 0 13 0;
#X connect 12 1 14 0;
#X connect 13 0 57 0;
#X connect 13 1 55 0;
#X connect 13 2 53 0;
#X connect 13 3 36 0;
#X connect 14 0 15 0;
#X connect 15 0 16 0;
#X connect 17 0 23 0;
#X connect 17 1 30 0;
#X connect 17 2 31 0;
#X connect 18 0 15 0;
#X connect 19 0 61 0;
#X connect 20 2 60 1;
#X connect 20 3 60 0;
#X connect 20 4 8 0;
#X connect 20 5 2 0;
#X connect 20 6 7 0;
#X connect 20 7 40 0;
#X connect 20 8 10 1;
#X connect 20 10 4 1;
#X connect 20 11 19 1;
#X connect 21 0 22 0;
#X connect 21 1 59 0;
#X connect 22 0 59 0;
#X connect 23 0 58 0;
#X connect 23 1 25 0;
#X connect 24 0 23 1;
#X connect 25 0 58 0;
#X connect 26 0 27 0;
#X connect 27 0 59 1;
#X connect 28 0 33 0;
#X connect 29 0 39 0;
#X connect 30 0 28 1;
#X connect 30 1 29 1;
#X connect 31 0 2 1;
#X connect 31 1 32 0;
#X connect 32 0 33 1;
#X connect 33 0 2 1;
#X connect 34 0 23 1;
#X connect 35 0 11 3;
#X connect 36 0 11 3;
#X connect 36 1 35 0;
#X connect 37 0 1 0;
#X connect 38 0 1 0;
#X connect 39 0 6 0;
#X connect 39 1 38 0;
#X connect 40 0 0 0;
#X connect 40 1 37 0;
#X connect 41 0 40 1;
#X connect 41 0 39 1;
#X connect 42 0 45 0;
#X connect 43 0 46 0;
#X connect 44 0 47 0;
#X connect 45 0 20 0;
#X connect 45 1 21 0;
#X connect 45 2 24 0;
#X connect 46 0 20 0;
#X connect 46 1 21 0;
#X connect 46 2 34 0;
#X connect 47 0 51 0;
#X connect 47 1 50 0;
#X connect 47 2 49 0;
#X connect 47 3 48 0;
#X connect 48 0 36 1;
#X connect 49 0 53 1;
#X connect 50 0 55 1;
#X connect 51 0 57 1;
#X connect 52 0 11 2;
#X connect 53 0 11 2;
#X connect 53 1 52 0;
#X connect 54 0 11 1;
#X connect 55 0 11 1;
#X connect 55 1 54 0;
#X connect 56 0 11 0;
#X connect 57 0 11 0;
#X connect 57 1 56 0;
#X connect 58 0 56 1;
#X connect 58 1 54 1;
#X connect 58 2 52 1;
#X connect 58 3 35 1;
#X connect 59 0 17 0;
#X connect 60 0 19 0;
#X connect 61 0 12 0;
#X restore 125 212 pd shift;
#X floatatom 518 102 2 0 3 0 - #0-posr #0-poss, f 2;
#X obj 502 103 bng 15 250 50 0 \$0-^vs \$0-^vr v 5 7 0 10 -262144 -1
-1;
#X obj 486 103 bng 15 250 50 0 \$0-?s \$0-?r ? 5 7 0 10 -262144 -1
-1;
#X obj 550 103 bng 15 250 50 0 \$0->s \$0->r > 5 7 0 10 -262144 -1
-1;
#X text 395 151 Copyright Liam Goodacre 2016;
#X text 256 179 onnect;
#X text 311 179 isconnect;
#X text 119 120 rom;
#X text 120 159 o;
#X obj 368 182 bng 15 250 50 0 \$0-??s \$0-??r ? 5 7 0 10 -262144 -1
-1;
#N canvas 65 54 1301 714 help 0;
#X obj 148 19 r \$0-?s;
#X msg 39 185 Select inlets or outlets;
#X obj 39 211 print ^ or v;
#X msg 22 237 Move connections one place left;
#X obj 22 263 print <;
#X msg 5 288 Move connections one place right;
#X obj 5 314 print >;
#X msg -12 337 Select which position in connection list to shift (press
help again for more info);
#X obj 175 64 f;
#X obj 175 89 sel 1;
#X obj 175 113 t f;
#X msg 202 113 1;
#X obj 148 41 t b b;
#X obj 118 138 demux;
#X obj 361 87 print 0;
#X obj 341 137 print 1;
#X msg 361 65 the object number of the connecting object;
#X msg 341 115 the outlet number of the connecting object;
#X msg 321 165 the object number of the connected object;
#X msg 301 215 the outlet number of the connected object;
#X obj 321 187 print 2;
#X obj 301 237 print 3;
#X obj 303 21 t b b b b b;
#X obj 371 325 print Note;
#X obj 175 395 r \$0-??s;
#X obj 351 472 print From;
#X msg 324 496 a list of object numbers you want to connect to. Works
the same as "from".;
#X obj 324 532 print To;
#X obj 220 600 print Connection;
#X obj 200 660 print no;
#X obj -12 372 print float (advanced);
#X msg 200 624 the number of connections you want to make (this calculates
itself).;
#X obj 190 720 print Connect;
#X msg 170 743 perform disconnection.;
#X msg 190 693 perform connection.;
#X obj 170 770 print Disonnect;
#X obj 175 417 t b b b b b b b;
#X obj -12 157 t b b b b b;
#X msg 365 364 see the help file for further instructions.;
#X msg 231 264 not all of these will work in every situation. Stick
to presets for the most reliable results. See the help file for further
instructions.;
#X msg 351 421 a list of object numbers you want to connect. Select
them with the mouse and hit the "from" button or type them directly
into the symbol box.;
#X msg 220 564 the connection number you want to use (0 being the first).
;
#X connect 0 0 12 0;
#X connect 1 0 2 0;
#X connect 3 0 4 0;
#X connect 5 0 6 0;
#X connect 7 0 30 0;
#X connect 8 0 9 0;
#X connect 8 0 13 1;
#X connect 9 0 10 0;
#X connect 9 1 11 0;
#X connect 10 0 8 1;
#X connect 11 0 8 1;
#X connect 12 0 13 0;
#X connect 12 1 8 0;
#X connect 13 0 37 0;
#X connect 13 1 22 0;
#X connect 16 0 14 0;
#X connect 17 0 15 0;
#X connect 18 0 20 0;
#X connect 19 0 21 0;
#X connect 22 0 39 0;
#X connect 22 1 19 0;
#X connect 22 2 18 0;
#X connect 22 3 17 0;
#X connect 22 4 16 0;
#X connect 24 0 36 0;
#X connect 26 0 27 0;
#X connect 31 0 29 0;
#X connect 33 0 35 0;
#X connect 34 0 32 0;
#X connect 36 0 38 0;
#X connect 36 1 33 0;
#X connect 36 2 34 0;
#X connect 36 3 31 0;
#X connect 36 4 41 0;
#X connect 36 5 26 0;
#X connect 36 6 40 0;
#X connect 37 1 7 0;
#X connect 37 2 5 0;
#X connect 37 3 3 0;
#X connect 37 4 1 0;
#X connect 38 0 23 0;
#X connect 39 0 23 0;
#X connect 40 0 25 0;
#X connect 41 0 28 0;
#X restore 86 235 pd help;
#N canvas 614 102 545 686 mode 0;
#X obj 244 10 t b b;
#X obj 191 78 route 0;
#X obj 271 78 route 0;
#X obj 191 34 f \$1;
#X obj 271 34 f \$2;
#X obj 66 253 iemguts/sendcanvas 1;
#X obj 230 104 t f b;
#X msg 257 127 1;
#X obj 47 147 spigot;
#X obj 47 171 t b b b;
#X msg 86 197 menu-open;
#X msg 34 198 vis 0;
#X obj 310 268 until;
#X obj 310 290 f;
#X obj 310 312 + 20;
#X obj 310 334 demux;
#X msg 310 366 obj \$1 300 outlet;
#X msg 336 396 obj \$1 400 inlet;
#X obj 230 127 - 1;
#X obj 201 175 s \$0-mode2;
#X obj 47 123 loadbang;
#X obj 95 354 r \$0-^vs;
#X obj 95 383 f;
#X obj 95 408 sel 1;
#X obj 95 432 t f;
#X msg 122 432 1;
#X msg 43 432 label v;
#X msg 153 432 label ^;
#X obj 119 506 s \$0-^vr;
#X obj 107 462 s \$0-inout;
#X msg 224 494 1;
#X obj 224 518 s \$0-posr;
#X msg 255 495 3;
#X msg 66 226 donecanvasdialog 1 1 1 0 -1 1 1 176 21 390 100 \, dirty
0;
#X obj 35 353 r \$0-^vc;
#X obj 110 107 print inn;
#X obj 244 -12 inlet;
#X connect 0 0 3 0;
#X connect 0 1 4 0;
#X connect 1 1 6 0;
#X connect 2 1 12 0;
#X connect 3 0 1 0;
#X connect 3 0 35 0;
#X connect 4 0 2 0;
#X connect 6 0 18 0;
#X connect 6 1 7 0;
#X connect 7 0 8 1;
#X connect 7 0 15 1;
#X connect 7 0 19 0;
#X connect 8 0 9 0;
#X connect 9 0 11 0;
#X connect 9 1 33 0;
#X connect 9 2 10 0;
#X connect 10 0 5 0;
#X connect 11 0 5 0;
#X connect 12 0 13 0;
#X connect 13 0 14 0;
#X connect 14 0 13 1;
#X connect 14 0 15 0;
#X connect 15 0 16 0;
#X connect 15 1 17 0;
#X connect 16 0 5 0;
#X connect 17 0 5 0;
#X connect 18 0 12 0;
#X connect 20 0 8 0;
#X connect 20 0 30 0;
#X connect 21 0 22 0;
#X connect 22 0 23 0;
#X connect 23 0 24 0;
#X connect 23 0 26 0;
#X connect 23 0 30 0;
#X connect 23 1 25 0;
#X connect 23 1 27 0;
#X connect 23 1 32 0;
#X connect 24 0 22 1;
#X connect 24 0 29 0;
#X connect 25 0 22 1;
#X connect 25 0 29 0;
#X connect 26 0 28 0;
#X connect 27 0 28 0;
#X connect 30 0 31 0;
#X connect 32 0 31 0;
#X connect 33 0 5 0;
#X connect 34 0 22 0;
#X connect 36 0 0 0;
#X restore 136 235 pd mode;
#X text 395 136 Connector v2;
#X obj 179 212 iemguts/initbang;
#X connect 5 0 10 0;
#X connect 32 0 30 0;
#X coords 0 -1 1 1 285 100 1 100 100;
