#N canvas 540 311 450 379 10;
#X obj 14 79 2f-env bd pitch 10.9648 85 30.1995 5 356 0 1 1 1 36 28.8403
0 10 43 4 152 76 348;
#X obj 349 32 osc~ 440;
#X obj 29 26 tgl 15 0 empty empty empty 17 7 0 10 -262144 -1 -1 1 1
;
#X obj 29 48 metro 1000;
#X obj 14 283 dac~;
#X obj 335 286 s~ pitch;
#X obj 353 8 r~ pitch;
#X obj 14 261 *~ 1;
#X connect 0 0 7 0;
#X connect 0 1 5 0;
#X connect 1 0 0 2;
#X connect 2 0 3 0;
#X connect 3 0 0 0;
#X connect 6 0 1 0;
#X connect 7 0 4 0;
#X connect 7 0 4 1;
