#N canvas 382 373 450 300 10;
#X obj 88 38 inlet l;
#X obj 150 38 inlet r;
#X obj 205 38 inlet new;
#X obj 162 96 !=;
#X obj 150 249 outlet;
#X obj 150 123 spigot;
#X obj 88 137 -;
#X obj 150 190 *;
#X obj 150 212 +;
#X obj 88 60 t f f f f;
#X obj 150 60 t b f b f;
#X obj 150 145 swap 1;
#X obj 150 167 -;
#X obj 88 107 swap;
#X connect 0 0 9 0;
#X connect 1 0 10 0;
#X connect 2 0 5 0;
#X connect 3 0 5 1;
#X connect 5 0 11 0;
#X connect 6 0 7 1;
#X connect 7 0 8 0;
#X connect 8 0 4 0;
#X connect 9 0 13 0;
#X connect 9 1 3 0;
#X connect 9 2 4 0;
#X connect 9 3 8 1;
#X connect 10 0 13 0;
#X connect 10 1 13 1;
#X connect 10 2 3 0;
#X connect 10 3 3 1;
#X connect 11 0 12 0;
#X connect 11 1 12 1;
#X connect 12 0 7 0;
#X connect 13 0 6 0;
#X connect 13 1 6 1;
