#N canvas 557 50 699 665 10;
#X obj 44 486 *~;
#X obj 103 422 *~ 0.5;
#X obj 161 438 *~ 0.5;
#X obj 220 74 /;
#X msg 220 50 1000 \$1;
#X obj 104 386 lop~ 1500;
#X obj 44 450 bp~ 1200 1;
#X obj 104 335 +~;
#X obj 103 310 *~ 1;
#X obj 102 262 osc~;
#X obj 102 237 * 1;
#X obj 102 551 outlet~;
#N canvas 462 164 450 300 zd 0;
#X obj 135 79 inlet~;
#X obj 137 175 outlet~;
#X obj 286 88 block~ 1;
#X obj 136 107 tabsend~ \$0-fo;
#X obj 136 142 tabreceive~ \$0-fo;
#X obj 275 161 table \$0-fo 1;
#X connect 0 0 3 0;
#X connect 4 0 1 0;
#X restore 161 413 pd zd;
#X obj 254 140 del;
#X msg 223 163 1;
#X obj 230 188 sig~;
#X obj 231 217 lop~ 100;
#X text 292 218 envelope;
#X text 145 501 Karplus Strong;
#X text 148 266 FM;
#X obj 103 476 *~;
#X obj 103 522 *~;
#X obj 43 579 delwrite~ \$0-bo 128;
#X obj 103 359 vd~ \$0-bo 128;
#X text 342 581 (c) Liam Goodacre 2016 \, liam.goodacre@gmail.com;
#X obj 220 5 inlet note;
#X obj 101 4 inlet harmonic;
#X obj 33 30 inlet~ noise;
#X obj 294 4 inlet attack;
#X obj 377 4 inlet amount;
#X obj 457 3 inlet lop;
#X obj 523 3 inlet bp;
#X obj 580 2 inlet q;
#X obj 628 4 inlet decay;
#X obj 690 5 inlet volume;
#X obj 189 547 env~;
#X obj 223 631 switch~;
#X obj 102 175 t b f;
#X msg 237 558 1;
#X obj 189 569 > 0.1;
#X obj 189 591 demux;
#X obj 237 580 t f f;
#X obj 254 163 t f f;
#X obj 102 286 -~ 1;
#X obj 295 292 log;
#X obj 295 346 +;
#X obj 220 97 t b b f f b;
#X obj 220 27 t f f f;
#X obj 295 373 cyclone/tanh;
#X obj 353 402 print ii;
#X obj 295 314 * 0.1;
#X connect 0 0 22 0;
#X connect 1 0 20 0;
#X connect 2 0 20 0;
#X connect 3 0 46 0;
#X connect 4 0 3 0;
#X connect 5 0 1 0;
#X connect 5 0 12 0;
#X connect 6 0 0 0;
#X connect 7 0 23 0;
#X connect 8 0 7 0;
#X connect 9 0 43 0;
#X connect 10 0 9 0;
#X connect 12 0 2 0;
#X connect 13 0 42 0;
#X connect 14 0 15 0;
#X connect 15 0 16 0;
#X connect 16 0 0 1;
#X connect 20 0 21 0;
#X connect 20 0 22 0;
#X connect 21 0 11 0;
#X connect 21 0 35 0;
#X connect 23 0 5 0;
#X connect 25 0 47 0;
#X connect 26 0 37 0;
#X connect 27 0 6 0;
#X connect 28 0 16 1;
#X connect 29 0 8 1;
#X connect 30 0 5 1;
#X connect 31 0 6 1;
#X connect 32 0 6 2;
#X connect 33 0 45 1;
#X connect 34 0 21 1;
#X connect 35 0 39 0;
#X connect 37 0 10 0;
#X connect 37 1 10 1;
#X connect 38 0 41 0;
#X connect 39 0 40 0;
#X connect 40 0 36 0;
#X connect 41 0 36 0;
#X connect 41 1 40 1;
#X connect 42 0 15 0;
#X connect 42 1 40 1;
#X connect 43 0 8 0;
#X connect 44 0 50 0;
#X connect 45 0 48 0;
#X connect 46 0 13 0;
#X connect 46 1 14 0;
#X connect 46 2 13 1;
#X connect 46 3 7 1;
#X connect 46 4 38 0;
#X connect 47 0 10 0;
#X connect 47 1 4 0;
#X connect 47 2 44 0;
#X connect 48 0 20 1;
#X connect 48 0 49 0;
#X connect 50 0 45 0;
#X coords 0 665 1 664 115 165 0;
