#N canvas 381 107 705 667 10;
#X obj 100 100 slide2 attack a \$1 3 300 1;
#X obj 160 100 slide2 lop l \$1 0 10000;
#X obj 140 100 slide2 amount m \$1 0 2;
#X msg 92 387 all \$1;
#X msg 194 382 all \$1;
#X msg 298 388 all \$1;
#X msg 245 388 all \$1;
#X msg 357 387 all \$1;
#X msg 469 360 all \$1;
#X msg 523 387 all \$1;
#X obj 52 512 inlet freq;
#X msg 79 556 next \$1;
#X obj 194 317 int;
#X obj 194 359 change;
#X obj 469 336 sqrt;
#X obj 271 514 noise~;
#X obj 180 100 slide2 bp b \$1 0 10000 1;
#X obj 200 100 slide2 Q q \$1 1 100 1;
#X msg 416 385 all \$1;
#X obj 263 634 outlet~;
#X obj 120 100 slide2 harmoni h \$1 0 10 0 0;
#X obj 166 70 psave \$1;
#X obj 200 606 clone 8 ks-innards;
#X msg 92 410 all \$1;
#X msg 194 409 all \$1;
#X msg 246 410 all \$1;
#X msg 298 410 all \$1;
#X msg 357 410 all \$1;
#X msg 417 410 all \$1;
#X msg 469 410 all \$1;
#X msg 524 410 all \$1;
#X obj 320 606 clone 8 ks-innards;
#X obj 52 534 t f f;
#X obj 52 556 * 1;
#X obj 110 223 num detune \$1 1 5 1;
#X obj 40 295 sel 0;
#X msg 52 578 next \$1;
#X msg 146 383 all \$1;
#X obj 146 318 int;
#X obj 146 360 change;
#X obj 469 385 sqrt;
#X obj 182 222 cnv 15 77 15 empty empty \$1 5 8 0 14 -233017 -66577
0;
#X obj 96 454 receive \$1-;
#X obj 96 476 route float;
#X obj 240 100 slide2 volume v \$1 0 2;
#X obj 220 100 slide2 decay d \$1 0.01 1.01;
#X connect 0 0 3 0;
#X connect 0 1 23 0;
#X connect 1 0 5 0;
#X connect 1 1 26 0;
#X connect 2 0 6 0;
#X connect 2 1 25 0;
#X connect 3 0 22 3;
#X connect 4 0 22 1;
#X connect 5 0 22 5;
#X connect 6 0 22 4;
#X connect 7 0 22 6;
#X connect 8 0 22 8;
#X connect 9 0 22 9;
#X connect 10 0 32 0;
#X connect 11 0 22 2;
#X connect 12 0 13 0;
#X connect 13 0 4 0;
#X connect 14 0 8 0;
#X connect 15 0 22 0;
#X connect 15 0 31 0;
#X connect 16 0 7 0;
#X connect 16 1 27 0;
#X connect 17 0 18 0;
#X connect 17 1 28 0;
#X connect 18 0 22 7;
#X connect 20 0 12 0;
#X connect 20 1 38 0;
#X connect 22 0 19 0;
#X connect 23 0 31 3;
#X connect 24 0 31 1;
#X connect 25 0 31 4;
#X connect 26 0 31 5;
#X connect 27 0 31 6;
#X connect 28 0 31 7;
#X connect 29 0 31 8;
#X connect 30 0 31 9;
#X connect 31 0 19 0;
#X connect 32 0 33 0;
#X connect 32 1 11 0;
#X connect 33 0 36 0;
#X connect 34 0 35 0;
#X connect 35 1 33 1;
#X connect 36 0 31 2;
#X connect 37 0 24 0;
#X connect 38 0 39 0;
#X connect 39 0 37 0;
#X connect 40 0 29 0;
#X connect 42 0 43 0;
#X connect 43 0 32 0;
#X connect 44 0 9 0;
#X connect 44 1 30 0;
#X connect 45 0 14 0;
#X connect 45 1 40 0;
#X coords 0 -1 1 1 160 138 2 100 100;
