#N canvas 416 50 845 708 12;
#X floatatom 117 19 5 0 0 0 - - -, f 5;
#X obj 115 192 dac~;
#X obj 279 193 context :Z 8 :a ' # = & x- (?7) & y- (?7) | # = | '
:d 2 :e 2 :h 1 :i 0 0 -6 -2 1 :j 3 2 0 :n ' cz ' :p -1 :P 1 :x 1 3
4 :y 2 :ID 1;
#X obj 323 44 scaler locrian c 4;
#X obj 404 124 receive c1-;
#X obj 404 148 print t;
#X obj 117 47 cz-synth cz 58 1.2 6 3 37 77 20 33 1;
#X obj 395 220 context :X 9 :Z 12 :a ' # = | ' :d 1 :e 1 :h 1 :i 0
-7 -6 0 -4 0 -3 0 0 :j 3 4 5 :n ' ks ' :p -1 :P 1 :x 2 3 5 7 :y 1 2
3 :ID 2;
#X obj 188 330 ks2 ks 0 12.0226 0 58 0 16 0 97 0 12.5893 0 1 0 45 1.5
0 58;
#X obj 395 285 context :X 9 :Z 12 :a ' # = | ' :d 1 :e 1 :i -4 -6 -6
-7 -4 -7 -3 0 1 :n ' ks ' :x 1 3 4 6 9 :ID 3;
#X obj 393 353 context :X 9 :Z 12 :a ' # = | ' :d 1 :e 1 :i -4 0 -6
-4 0 -4 0 0 1 :n ' ks ' :x 1 3 4 6 9 :ID 4;
#X obj 393 424 context :X 9 :Z 12 :a ' # = | ' :d 1 :e 1 :i -4 0 -6
-4 0 0 0 0 1 :n ' ks ' :x 1 3 4 6 9 :ID 5;
#X msg 498 52;
#X connect 0 0 6 0;
#X connect 4 0 5 0;
#X connect 6 0 1 0;
#X connect 6 0 1 1;
#X connect 8 0 1 0;
#X connect 8 0 1 1;
