#N canvas 235 90 1280 740 12;
#X floatatom 117 19 5 0 0 0 - - -, f 5;
#X obj 115 192 dac~;
#X obj 310 174 context :Z 8 :a ' # = & x- (?7) & y- (?7) | # = | '
:d 2 :e 2 :h 1 :i 0 0 -6 -2 11 :j 3 2 0 :n ' cz ' :p -1 :P 1 :x 1 3
4 5 :y 2 :ID 1;
#X obj 323 44 scaler locrian c 4;
#X obj 117 47 cz-synth cz 58 1.2 3 1 37 77 20 33 1;
#X obj 395 220 context :X 9 :Z 12 :a ' # = | ' :d 1 :e 1 :h 1 :i 0
-7 -6 0 -4 0 -3 0 0 :j 3 4 5 :n ' ks ' :p -1 :P 1 :x 2 3 5 7 :y 1 2
3 :ID 2;
#X obj 78 330 ks2 ks 0 12.0226 0 58 0 16 7 89 0 12.5893 0 1 0 45 1.5
0 58;
#X obj 395 285 context :X 9 :Z 12 :a ' # = | ' :d 1 :e 1 :i -4 -6 -6
-7 -4 -7 -3 0 1 :n ' ks ' :x 1 3 4 6 9 :ID 3;
#X obj 393 353 context :X 9 :Z 12 :a ' # = | ' :d 1 :e 1 :i -4 0 -6
-4 15 -4 0 0 1 :n ' ks ' :x 1 3 4 5 6 9 :ID 4;
#X obj 393 424 context :X 9 :Z 12 :a ' # = | ' :d 1 :e 1 :i -4 0 -6
-4 15 0 0 0 1 :j 0 13 0 :n ' ks ' :x 1 3 4 5 6 9 :ID 5;
#X msg 498 52 context :X 9 :Z 12 :a ' # = | ' :d 2 :e 1 :i -4 0 -6
-4 0 -4 0 0 0 :n ' ks ' :x 1 3 4 6;
#X obj 325 257 context :M 1 :a ' # = | # = | ' :d 0.5 :e 1 :f 5 :h
1 :i 0 -6 0 0 0 :n ' ks ' :p -1 :z 0 :R 63.36 :x 1 2 3 4 :ID 6;
#X obj 268 392 context :a ' # = | ' :d 0.5 :e 1 :i 0 -2 -6 0 0 :n '
cz ' :x 2 3 :ID 7;
#X obj 279 317 context :d 1.5 :h 1 :j 7 9 0 :p -1 :R 63.36 :y 1 2 :ID
8;
#X obj 278 472 context :a ' # = | # = | ' :d 0.5 :i -2 0 -6 0 0 :n
' cz ' :x 1 3 :ID 9;
#X floatatom 359 125 5 0 0 0 - - -, f 5;
#X obj 658 368 context :a ' # = | # = | ' :d 1.5 :e 1 :h 1 :i 0 -6
-2 0 10 :j 12 0 0 :n ' bass ' :p -1 :R 63.36 :x 1 2 3 :ID 10;
#X obj 570 195 receive bass-;
#X floatatom 611 273 5 0 0 0 - - -, f 5;
#N canvas 361 98 450 408 bass 0;
#X obj 115 49 inlet;
#X obj 225 53 inlet;
#X obj 115 73 t f b b b;
#X msg 155 135 1;
#X obj 154 286 lop~;
#X obj 155 163 sig~;
#X obj 135 101 del 20;
#X obj 114 135 t f b;
#X msg 126 164 1.4;
#X obj 115 310 *~;
#X obj 115 334 outlet~;
#X obj 116 221 *~ 1;
#X obj 116 249 cyclone/tanh~;
#X obj 115 196 osc~;
#X msg 176 190 1000;
#X connect 0 0 2 0;
#X connect 1 0 11 1;
#X connect 2 0 13 0;
#X connect 2 1 6 0;
#X connect 2 2 3 0;
#X connect 2 3 14 0;
#X connect 3 0 5 0;
#X connect 4 0 9 1;
#X connect 5 0 4 0;
#X connect 6 0 7 0;
#X connect 7 0 5 0;
#X connect 7 1 8 0;
#X connect 8 0 4 1;
#X connect 9 0 10 0;
#X connect 11 0 12 0;
#X connect 12 0 9 0;
#X connect 13 0 11 0;
#X connect 14 0 4 1;
#X restore 574 302 pd bass;
#X obj 674 291 context :M 1 :h 1 :i 10 12 0 0 0 :p -1 :z 0 :R 63.36
:x 1 2 3 :ID 11;
#X obj 730 364 context :a ' # = | # = | ' :d 1.5 :e 1 :h 1 :i 0 0 -6
-2 10 :j 10 0 0 :n ' bass ' :p -1 :R 63.36 :x 1 3 4 :ID 12;
#X obj 753 517 context :a ' # = | # = | ' :d 0.5 :e 1 :i 0 -6 -2 0
10 :n ' bass ' :x 1 2 3 :ID 13;
#X obj 829 521 context :a ' # = | # = | ' :d 0.5 :e 1 :i -6 -2 -6 0
10 :n ' bass ' :x 1 2 3 :ID 14;
#X obj 775 454 context :M 1 :h 1 :i 13 14 0 0 0 :p -1 :z 0 :P 1 :x
1 2 3 :ID 15;
#X obj 570 219 * 1;
#X floatatom 616 229 5 0 0 0 - - -, f 5;
#X connect 0 0 4 0;
#X connect 2 0 20 1;
#X connect 2 2 20 2;
#X connect 2 3 11 2;
#X connect 4 0 1 0;
#X connect 4 0 1 1;
#X connect 6 0 1 0;
#X connect 6 0 1 1;
#X connect 11 0 13 2;
#X connect 17 0 25 0;
#X connect 18 0 19 1;
#X connect 19 0 1 0;
#X connect 19 0 1 1;
#X connect 25 0 19 0;
#X connect 26 0 25 1;
