#N canvas 631 208 450 321 10;
#N canvas 592 89 671 687 move 0;
#X obj 128 67 spigot;
#X obj 272 709 iemguts/canvasindex 1;
#X obj 95 735 iemguts/canvasobjectposition 2;
#X obj 178 688 t a b;
#X obj 89 395 r \$0-posereset;
#X msg 89 417 0 -20;
#N canvas 727 139 450 406 condition 0;
#X obj 146 107 unpack f f;
#X obj 55 2 inlet;
#X obj 165 184 >=;
#X obj 222 184 >=;
#X text 155 43 from mousegrid >>;
#X obj 161 85 unpack f f;
#X obj 146 133 -;
#X obj 203 133 -;
#X obj 203 159 t f f f;
#X obj 146 159 t f f f;
#X obj 185 184 <= 36;
#X obj 242 184 <= 48;
#X obj 222 209 +;
#X obj 165 209 +;
#X obj 165 231 +;
#X obj 165 253 == 4;
#X obj 229 107 unpack f f;
#X obj 146 277 spigot;
#X obj 203 277 spigot;
#X obj 146 330 outlet;
#X obj 55 24 t b a;
#X obj 55 66 list;
#X obj 55 45 ctxfiles/deb 200;
#X obj 146 305 demux;
#X obj 203 305 spigot;
#X obj 203 330 outlet;
#X obj 101 23 sel 0;
#X obj 55 90 t a a;
#X obj 101 1 ctxfiles/dv \$0 r key;
#X obj 148 23 ctxfiles/dv \$0 r mup;
#X obj 161 61 ctxfiles/dv \$0 r mycpos;
#X obj -10 159 ctxfiles/dv \$0 s preview;
#X obj 229 85 ctxfiles/dv \$0 r cursorsz;
#X obj 248 278 ctxfiles/dv \$0 r ymode;
#X connect 0 0 6 0;
#X connect 0 1 7 0;
#X connect 1 0 20 0;
#X connect 2 0 13 0;
#X connect 3 0 12 0;
#X connect 5 0 6 1;
#X connect 5 1 7 1;
#X connect 6 0 9 0;
#X connect 7 0 8 0;
#X connect 8 0 18 0;
#X connect 8 1 3 0;
#X connect 8 2 11 0;
#X connect 9 0 17 0;
#X connect 9 1 2 0;
#X connect 9 2 10 0;
#X connect 10 0 13 1;
#X connect 11 0 12 1;
#X connect 12 0 14 1;
#X connect 13 0 14 0;
#X connect 14 0 15 0;
#X connect 15 0 17 1;
#X connect 15 0 18 1;
#X connect 16 0 10 1;
#X connect 16 1 11 1;
#X connect 17 0 23 0;
#X connect 18 0 24 0;
#X connect 20 0 22 0;
#X connect 20 1 21 1;
#X connect 21 0 27 0;
#X connect 22 0 21 0;
#X connect 23 0 19 0;
#X connect 24 0 25 0;
#X connect 26 0 22 1;
#X connect 27 0 0 0;
#X connect 27 1 31 0;
#X connect 28 0 26 0;
#X connect 29 0 22 2;
#X connect 30 0 5 0;
#X connect 32 0 16 0;
#X connect 33 0 23 1;
#X connect 33 0 24 1;
#X restore 178 285 pd condition;
#X obj 178 330 pack f 1;
#X msg 247 330 1 \$1;
#X text 105 707 replace: mclick \, ymode \, mup \, click2;
#X obj 128 36 mux;
#X obj 159 163 unpack f f;
#X obj 159 189 * 12;
#X obj 216 189 * 12;
#X obj 159 241 pack f f;
#X obj 307 207 unpack f f;
#X obj 159 214 +;
#X obj 216 214 +;
#X obj 128 112 demux 0 1 2;
#X obj 302 8 == 1;
#X obj 352 -41 - 1;
#X obj 302 -41 moses 1;
#X obj 302 -64 mod 4;
#X obj 336 8 == 2;
#X obj 205 360 demux;
#X obj 274 360 demux;
#X msg 232 638 s \$1;
#X obj 178 307 t f f;
#X obj 247 307 t f f;
#X obj 232 660 demux;
#X msg 328 406 1;
#X obj 259 405 t f;
#X obj 232 440 t f b f;
#X obj 247 505 spigot;
#X obj 280 475 t f;
#X obj 232 549 -;
#X obj 302 -15 t f f f f;
#X obj 353 34 sel 2;
#X msg 308 475 1;
#X obj 232 383 t f b b;
#X obj 302 383 t f b b;
#X obj 341 454 * 0.001;
#X obj 341 534 *;
#X obj 232 617 +;
#X obj 341 578 ctxfiles/round;
#X obj 341 556 / \$1;
#X obj 341 600 * \$1;
#X obj 232 593 * 0.1;
#X obj 269 525 loadbang;
#X obj 269 547 f \$1;
#X obj 269 569 sel 0;
#X obj 302 -86 ctxfiles/dv \$0 r click2;
#X obj 128 -12 ctxfiles/dv \$0 r motion;
#X obj 135 12 ctxfiles/dv \$0 r mousegrid;
#X obj 161 35 ctxfiles/dv \$0 r shift;
#X obj 180 138 ctxfiles/dv \$0 r xzoomdiv;
#X obj 308 159 ctxfiles/dv \$0 r yzoomdiv;
#X obj 307 183 ctxfiles/dv \$0 r mycpos;
#X obj 341 432 ctxfiles/dv \$0 v tbyd;
#X obj 225 688 ctxfiles/dv \$0 s mmovex;
#X obj 320 668 ctxfiles/dv \$0 s mmovey;
#X obj 181 57 ctxfiles/dv \$0 r move-disable;
#X obj 128 89 demux;
#X connect 0 0 62 0;
#X connect 1 0 2 1;
#X connect 3 0 2 0;
#X connect 3 1 1 0;
#X connect 4 0 5 0;
#X connect 5 0 3 0;
#X connect 6 0 27 0;
#X connect 6 1 28 0;
#X connect 7 0 3 0;
#X connect 8 0 3 0;
#X connect 10 0 0 0;
#X connect 11 0 12 0;
#X connect 11 1 13 0;
#X connect 12 0 16 0;
#X connect 13 0 17 0;
#X connect 14 0 6 0;
#X connect 15 0 16 1;
#X connect 15 1 17 1;
#X connect 16 0 14 0;
#X connect 17 0 14 1;
#X connect 18 0 6 0;
#X connect 18 1 11 0;
#X connect 18 2 6 0;
#X connect 19 0 10 2;
#X connect 20 0 36 0;
#X connect 21 0 36 0;
#X connect 21 1 20 0;
#X connect 22 0 21 0;
#X connect 23 0 24 1;
#X connect 23 0 25 1;
#X connect 24 0 59 0;
#X connect 24 1 39 0;
#X connect 25 0 60 0;
#X connect 25 1 40 0;
#X connect 26 0 29 0;
#X connect 27 0 7 0;
#X connect 27 1 24 0;
#X connect 28 0 8 0;
#X connect 28 1 25 0;
#X connect 29 0 59 0;
#X connect 29 1 60 0;
#X connect 30 0 29 1;
#X connect 31 0 29 1;
#X connect 32 0 35 0;
#X connect 32 1 34 0;
#X connect 32 2 33 0;
#X connect 33 0 35 1;
#X connect 33 0 42 1;
#X connect 34 0 33 1;
#X connect 35 0 47 0;
#X connect 36 0 19 0;
#X connect 36 1 18 1;
#X connect 36 2 23 0;
#X connect 36 3 37 0;
#X connect 37 0 38 0;
#X connect 38 0 33 1;
#X connect 39 0 32 0;
#X connect 39 1 31 0;
#X connect 39 2 58 0;
#X connect 40 0 32 0;
#X connect 40 1 30 0;
#X connect 40 2 58 0;
#X connect 41 0 42 0;
#X connect 42 0 45 0;
#X connect 43 0 26 0;
#X connect 44 0 46 0;
#X connect 45 0 44 0;
#X connect 46 0 43 1;
#X connect 47 0 43 0;
#X connect 48 0 49 0;
#X connect 49 0 50 0;
#X connect 50 1 47 1;
#X connect 51 0 22 0;
#X connect 52 0 10 0;
#X connect 53 0 10 1;
#X connect 54 0 0 1;
#X connect 55 0 12 1;
#X connect 56 0 13 1;
#X connect 57 0 15 0;
#X connect 58 0 41 0;
#X connect 61 0 62 1;
#X connect 62 0 18 0;
#X restore 196 52 pd move;
#N canvas 560 299 621 460 size 1;
#X obj 264 162 demux;
#X obj 182 355 iemguts/sendcanvas 1;
#X obj 150 232 * 2;
#X msg 182 276 menu-open;
#X msg 119 303 vis 0;
#X msg 166 254 1;
#X obj 119 206 t b f f b b;
#X obj 134 280 sel 0;
#X obj 91 355 s \$0-posereset;
#X obj 218 308 list prepend;
#X obj 205 100 unpack f f;
#X obj 205 122 - 1;
#X obj 262 122 - 1;
#X obj 205 144 pack f f;
#X obj 310 33 r \$0-lbb;
#X obj 310 78 t b f;
#X obj 205 78 list 46 34;
#X obj 205 55 t b a;
#X obj 205 13 ctxfiles/dv \$0 r cursorsz;
#X obj 119 184 ctxfiles/dv \$0 r shift;
#X obj 310 56 ctxfiles/dv \$0 r ymode;
#X obj 15 123 ctxfiles/dv \$0 r move-disable;
#X obj 15 145 sel 1;
#X obj 15 167 t f;
#X msg 182 373 coords 1 -1 1 1 \$1 \$2 \$3 0 3;
#X msg 218 335 coords 1 -1 1 1 \$1 \$2 \$3 0 3;
#X msg 291 205 \$1 1;
#X msg 264 184 1 \$2;
#X connect 0 0 27 0;
#X connect 0 1 26 0;
#X connect 2 0 9 0;
#X connect 3 0 1 0;
#X connect 4 0 1 0;
#X connect 5 0 9 0;
#X connect 6 0 4 0;
#X connect 6 1 7 0;
#X connect 6 2 2 0;
#X connect 6 3 5 0;
#X connect 6 4 3 0;
#X connect 7 0 8 0;
#X connect 9 0 25 0;
#X connect 10 0 11 0;
#X connect 10 1 12 0;
#X connect 11 0 13 0;
#X connect 12 0 13 1;
#X connect 13 0 0 0;
#X connect 14 0 16 0;
#X connect 15 0 16 0;
#X connect 15 1 0 1;
#X connect 16 0 10 0;
#X connect 17 0 16 0;
#X connect 17 1 16 1;
#X connect 18 0 17 0;
#X connect 19 0 6 0;
#X connect 20 0 15 0;
#X connect 21 0 22 0;
#X connect 22 0 23 0;
#X connect 23 0 6 0;
#X connect 25 0 1 0;
#X connect 26 0 9 1;
#X connect 27 0 9 1;
#X restore 230 127 pd size;
#X obj 127 222 receive;
#X obj 83 93 r mover;
#X msg 83 115 vis 1;
#X obj 83 137 iemguts/sendcanvas;
#X obj 294 49 ctxfiles/dvi \$0 3;
#X obj 294 73 ctxfiles/dv \$0 s backsplash;
#X connect 3 0 4 0;
#X connect 4 0 5 0;
#X connect 6 0 7 0;
#X coords 0 321 1 320 311 2 0;
