#N canvas 65 231 1301 504 10;
#X obj 781 124 f 500;
#X obj 763 248 sig~;
#X obj 797 249 f 1;
#X obj 763 272 lop~;
#X obj 765 149 f 1;
#X obj 307 611 outlet~;
#X obj 734 65 inlet on;
#X text 754 519 Liam Goodacre 2016 \, liam.goodacre@gmail.com;
#N canvas 65 125 450 330 (subpatch) 0;
#X array \$0-env 20000 float 2;
#X obj 209 194 r \$0-off;
#X obj 209 240 iemguts/sendcanvas;
#X obj 139 1 nbx 6 10 0 1e+37 0 1 \$0-sis \$0-sir empty 0 -8 0 10 -262144
-1 -1 20000 256;
#X msg 209 216 coords 0 \$2 \$4 \$3 200 30 \$1 0 0;
#X connect 1 0 4 0;
#X connect 4 0 2 0;
#X coords 0 1 20000 0 200 30 0;
#X restore 100 217 graph;
#X msg 486 336 resize \$1;
#X obj 486 358 s \$0-env;
#X obj 269 305 sel 0;
#X obj 269 327 t b f;
#X msg 309 351 1;
#X msg 543 368 0;
#X obj 733 408 tabwrite~ \$0-env;
#X obj 733 324 spigot;
#X obj 927 441 inlet~;
#X obj 307 588 *~;
#X obj 346 478 iemguts/canvasconnections;
#X obj 309 327 t b b b;
#X obj 346 500 list length;
#X obj 346 544 sig~;
#X obj 346 522 <= 2;
#X msg 346 455 inlet 2;
#X obj 543 409 pack f 1 0 20000;
#X obj 543 431 s \$0-off;
#X text 247 58 xfrom yfrom xto yto xsize ysize GOP xmargin ymargin
;
#X obj 103 78 slide attack1 a \$1 10 10000 1;
#X obj 251 183 tog preview \$1;
#X obj 486 287 receive \$0-sis;
#X obj 486 311 t f b f;
#X obj 326 20 psave \$1;
#X obj 88 27 cnv 15 198 15 empty empty \$1 5 8 0 14 -204786 -66577
0;
#X msg 336 351 177;
#X msg 269 388 menu-open \, coords 0 -1 1 1 200 \$1 2 100 76 \, vis
0;
#X msg 269 353 130;
#X obj 269 411 ctxfiles/myinit 2;
#X obj 269 435 iemguts/sendcanvas;
#X obj 692 42 receive \$1-start;
#X obj 749 196 t f b;
#X obj 749 174 del 20;
#X obj 171 78 slide2 attack2 t \$1 10 10000 1;
#X obj 889 164 metro 1 2 msec;
#X obj 936 214 f 500;
#X obj 904 309 sig~;
#X obj 938 310 f 1;
#X obj 904 333 lop~;
#X obj 920 239 f 1;
#X obj 904 264 del 20;
#X obj 780 298 env~;
#X obj 780 320 > 0.01;
#X obj 780 342 change;
#X obj 780 364 sel 1;
#X msg 889 135 tempo \$1 msec;
#X obj 748 351 *~;
#X obj 194 78 slide2 decay2 e \$1 20 0.1 0;
#X obj 148 78 slide2 freq f \$1 40 2000 1;
#X obj 345 133 snapshot~;
#X obj 142 350 interp;
#X obj 125 78 slide decay1 d \$1 3 0.1 0;
#X obj 118 302 interp;
#X obj 166 307 interp;
#X obj 889 189 t b b b b;
#X obj 904 286 t f b;
#X obj 217 78 slide2 custom c \$1 0 2000 0;
#X obj 202 373 interp;
#X obj 617 576 outlet;
#X obj 734 99 t b b b b b b;
#X connect 0 0 3 1;
#X connect 1 0 3 0;
#X connect 2 0 3 1;
#X connect 3 0 55 0;
#X connect 3 0 50 0;
#X connect 3 0 58 0;
#X connect 4 0 1 0;
#X connect 6 0 68 0;
#X connect 9 0 10 0;
#X connect 11 0 12 0;
#X connect 11 1 20 0;
#X connect 12 0 36 0;
#X connect 12 1 25 0;
#X connect 13 0 25 0;
#X connect 14 0 25 0;
#X connect 16 0 15 0;
#X connect 17 0 18 0;
#X connect 18 0 5 0;
#X connect 19 0 21 0;
#X connect 20 0 13 0;
#X connect 20 1 34 0;
#X connect 20 2 24 0;
#X connect 21 0 23 0;
#X connect 22 0 18 0;
#X connect 23 0 22 0;
#X connect 24 0 19 0;
#X connect 25 0 26 0;
#X connect 29 0 16 1;
#X connect 29 0 11 0;
#X connect 30 0 31 0;
#X connect 31 0 9 0;
#X connect 31 1 25 0;
#X connect 31 2 25 3;
#X connect 34 0 35 0;
#X connect 35 0 37 0;
#X connect 36 0 35 0;
#X connect 37 0 38 0;
#X connect 39 0 68 0;
#X connect 40 0 1 0;
#X connect 40 1 2 0;
#X connect 41 0 40 0;
#X connect 42 0 59 0;
#X connect 42 1 59 1;
#X connect 43 0 63 0;
#X connect 44 0 47 1;
#X connect 45 0 47 0;
#X connect 46 0 47 1;
#X connect 47 0 55 1;
#X connect 48 0 45 0;
#X connect 49 0 64 0;
#X connect 50 0 51 0;
#X connect 51 0 52 0;
#X connect 52 0 53 0;
#X connect 53 1 43 0;
#X connect 54 0 43 0;
#X connect 55 0 15 0;
#X connect 55 0 18 1;
#X connect 56 0 62 0;
#X connect 56 1 62 1;
#X connect 57 0 61 0;
#X connect 57 1 61 1;
#X connect 58 0 59 2;
#X connect 58 0 62 2;
#X connect 58 0 61 2;
#X connect 58 0 66 2;
#X connect 59 0 44 1;
#X connect 60 0 2 1;
#X connect 61 0 54 0;
#X connect 62 0 46 1;
#X connect 63 0 58 0;
#X connect 63 1 49 0;
#X connect 63 2 48 0;
#X connect 63 3 44 0;
#X connect 64 0 45 0;
#X connect 64 1 46 0;
#X connect 65 0 66 0;
#X connect 65 1 66 1;
#X connect 66 0 67 0;
#X connect 68 0 16 0;
#X connect 68 1 41 0;
#X connect 68 2 4 0;
#X connect 68 3 0 0;
#X connect 68 4 43 0;
#X connect 68 5 58 0;
#X coords 0 -1 1 1 200 130 2 100 76;
