#N canvas 507 93 640 687 10;
#X obj 83 133 context :X 14 :Z 23 :a ' one | two | three | t | ' :b
' aaaa | bb | cc | ' :d 2 :e 1 :f 1 :h 1 :i 0 0 0 0 0 0 0 0 0 0 0 0
0 1 :p -1 :P 1 :x 2 4 5 14 :y 1 2 3 :ID 1;
#X obj 255 79 receive c1-;
#X msg 74 77 :m \$1;
#X obj 74 50 tgl 15 0 empty empty empty 17 7 0 10 -262144 -1 -1 0 1
;
#X obj 255 123 print o;
#X obj 255 101 spigot 1;
#X obj 322 210 context :X 9 :Z 15 :a ' | stop - | ' :d 2 :e 1 :f 1
:x 3 :ID 2;
#X obj 226 283 context :d 1 :e 1 :f 1 :i 0 0 0 0 3 :x 5 :ID 3;
#X connect 1 0 5 0;
#X connect 2 0 0 1;
#X connect 3 0 2 0;
#X connect 5 0 4 0;
