#N canvas 605 44 675 708 10;
#X obj 397 330 text define d\$1;
#X obj 3 224 receive \$1-und-n;
#X obj 138 234 receive \$1-und-l;
#X obj 43 381 list prepend;
#X obj 43 446 list trim;
#X obj 243 343 f;
#X obj 272 343 + 1;
#X obj 43 403 list prepend;
#X obj 43 467 print undo \$1;
#X obj 43 313 list-abs/list-filter;
#X obj 193 313 >;
#X obj 138 262 t a a b;
#X obj 199 407 text set d\$1 1e+006;
#X obj 3 246 list trim;
#X obj 104 122 tgl 15 0 \$0-printr \$0-prints print 17 7 0 10 -262144
-1 -1 0 1;
#X obj 154 122 bng 15 250 50 0 \$0-lists \$0-listr list 17 7 0 10 -262144
-1 -1;
#X floatatom 104 142 5 0 0 3 - - -, f 5;
#X obj 348 347 f;
#X obj 154 142 bng 15 250 50 0 \$0-undos \$0-undor undo 17 7 0 10 -262144
-1 -1;
#X obj 200 122 bng 15 250 50 0 \$0-clears \$0-clearr clear 17 7 0 10
-262144 -1 -1;
#X msg 397 306 clear;
#X obj 354 277 t f f b;
#X obj 348 369 text get d\$1;
#X obj 368 420 t a a;
#X obj 400 442 list split 1;
#X obj 278 442 list split 1;
#X obj 400 464 makefilename c%d;
#X obj 355 613 send;
#X obj 376 347 inlet;
#X obj 43 425 spigot;
#X obj 3 268 relay :x :y;
#X obj 3 290 list split 1;
#X obj 3 336 list append;
#X obj 318 487 route :x :y;
#X obj 318 464 list trim;
#X obj 318 509 list prepend -;
#X obj 318 531 list prepend :x;
#X obj 355 559 list prepend -;
#X obj 355 581 list prepend :y;
#X obj 154 197 t b b b;
#X obj 328 201 f;
#X obj 328 223 - 1;
#X obj 310 246 f;
#X msg 320 138 click;
#X obj 199 381 list prepend;
#X obj 348 391 list split 1;
#X obj 28 496 l2s;
#X msg 74 518 param 5 0 0 \$1 3 - -;
#X obj 28 518 t b a;
#X msg 28 540 dirty 0;
#X obj 28 562 iemguts/sendcanvas;
#X obj 43 359 list prepend →;
#X connect 1 0 13 0;
#X connect 2 0 11 0;
#X connect 3 0 7 0;
#X connect 3 0 46 0;
#X connect 4 0 8 0;
#X connect 5 0 6 0;
#X connect 5 0 7 1;
#X connect 5 0 16 0;
#X connect 5 0 44 1;
#X connect 6 0 5 1;
#X connect 7 0 29 0;
#X connect 9 0 32 1;
#X connect 9 1 10 0;
#X connect 10 0 9 1;
#X connect 11 0 3 1;
#X connect 11 1 44 0;
#X connect 11 2 5 0;
#X connect 13 0 30 0;
#X connect 14 0 29 1;
#X connect 15 0 43 0;
#X connect 16 0 17 1;
#X connect 16 0 40 1;
#X connect 17 0 22 0;
#X connect 18 0 39 0;
#X connect 19 0 21 0;
#X connect 20 0 0 0;
#X connect 21 0 5 1;
#X connect 21 1 16 0;
#X connect 21 2 20 0;
#X connect 22 0 45 0;
#X connect 23 0 25 0;
#X connect 23 1 24 0;
#X connect 24 0 26 0;
#X connect 25 1 34 0;
#X connect 26 0 27 1;
#X connect 28 0 22 0;
#X connect 29 0 4 0;
#X connect 30 0 31 0;
#X connect 30 1 31 0;
#X connect 30 2 51 0;
#X connect 31 0 32 0;
#X connect 31 1 9 0;
#X connect 32 0 51 0;
#X connect 33 0 35 0;
#X connect 33 1 37 0;
#X connect 33 2 27 0;
#X connect 34 0 33 0;
#X connect 35 0 36 0;
#X connect 36 0 27 0;
#X connect 37 0 38 0;
#X connect 38 0 27 0;
#X connect 39 0 42 0;
#X connect 39 1 17 0;
#X connect 39 2 40 0;
#X connect 40 0 41 0;
#X connect 41 0 42 1;
#X connect 42 0 16 0;
#X connect 43 0 0 0;
#X connect 44 0 12 0;
#X connect 45 1 23 0;
#X connect 46 0 48 0;
#X connect 47 0 16 0;
#X connect 48 0 49 0;
#X connect 48 1 47 0;
#X connect 49 0 50 0;
#X connect 51 0 3 0;
#X coords 0 -1 1 1 155 60 1 100 100;
