#N canvas 65 93 450 300 10;
#X obj 303 136 inlet~;
#X obj 303 180 outlet;
#X obj 303 158 snapshot~;
#X obj 238 70 loadbang;
#X obj 238 126 metro 100;
#X obj 296 70 f \$1;
#X obj 296 92 sel 0;
#X obj 238 190 spigot;
#X obj 169 101 tgl 15 0 empty empty empty 17 7 0 10 -262144 -1 -1 0
1;
#X obj 236 221 print signal;
#X connect 0 0 2 0;
#X connect 2 0 1 0;
#X connect 2 0 7 0;
#X connect 3 0 5 0;
#X connect 3 0 4 0;
#X connect 4 0 2 0;
#X connect 5 0 6 0;
#X connect 6 1 4 1;
#X connect 7 0 9 0;
#X connect 8 0 7 1;
#X coords 0 -1 1 1 85 17 1 100 100;
