#N canvas 130 89 1346 657 10;
#X obj 365 208 cz-synth cz 15 4 7 4 32 94 0 65 0 79 4 3 7 59 83 0 26
1;
#X obj 325 347 dac~;
#X obj 645 163 context :a ' f (? 100) 2000 | ' :e 1 :f 1 :i 0 0 -4
0 1 :j 2 3 0 :n ' feedback ' :E 1 :x 1 :ID 1;
#X obj 554 123 context :a ' # = | ' :d 2 :e 1 :f 1 :i 0 -3 0 -2 0 :j
3 4 0 :n ' cz ' :E 1 :x 4 :y 1 2 :ID 2;
#X obj 718 322 context :a ' # = | ' :b ' n (!n - 3) | ' :d 2 :e 1 :f
1 :i 0 -5 0 -3 0 :j 8 0 0 :n ' cz ' :E 1 :y 1 :ID 3;
#X obj 541 238 context :a ' # = | ' :d 1 :e 1 :f 1 :i 0 -2 -8 0 0 :j
0 3 0 :n ' cz ' :x 3 :y 2 :ID 4;
#X obj 966 526 context :X 8 :Z 12 :a ' f (?100) 1000 | ' :d 4 :e 1
:f 1 :i 0 -1 -1 -1 0 :n ' feedback2 ' :E 1 :x 1 :ID 5;
#X obj 611 414 bass~ bass 92 43 92 100 100 40 95 39;
#X obj 450 497 stutter feedback 84 83 30.1995 30.1995 0 84 51 2.75423
44.6315 0;
#X obj 231 117 netsend;
#X obj 291 118 receive cz-;
#X msg 690 57 \; c-all stop;
#X msg 161 261 send \$1;
#X obj 291 147 route float;
#X obj 794 150 context :Z 7 :a ' n 3 | ' :b ' n = | ' :d 4 :e 1 :f
1 :h 1 :i -1 0 0 0 0 :j 7 10 0 :n ' ss ' :p -1 :D 2 :K 1 :R 63.36 :y
2 :ID 6;
#X obj 370 107 receive ss-;
#X obj 798 220 context :a ' n (!n + 2) | nn | ' :b ' n (!n + 4) | '
:d 1 :e 1 :f 1 :j 8 3 0 :n ' ss ' :D 2 :K 1 :x 1 :y 1 2 :ID 7;
#X obj 806 327 context :a ' \\\; \\\; \\\; \\\; ' :b ' n (!n - 2) |
' :d 1 :e 1 :f 1 :h 1 :j 6 11 0 :n ' ss ' :p -1 :K 1 :R 63.36 :y 1
2 :ID 8;
#X obj 921 239 context :a ' | ' :b ' n (!n - 2) | ' :d 1 :e 1 :f 1
:h 1 :j 7 10 0 :n ' ss ' :p -1 :D 2 :K 1 :P 1 :y 1 2 :ID 9;
#X obj 999 334 context :a ' n = | ' :b ' n (!n - 3 | ' :d 1 :e 1 :f
1 :i -2 0 -4 -2 0 :j 9 0 0 :k 0.5 :n ' ss ' :K 1 :x 1 3 4 :y 1 :ID
10;
#X obj 371 133 route n;
#X obj 888 475 context :a ' | ' :b ' n (!n + 3) | ' :d 0.5 :e 1 :f
1 :j 10 12 0 :n ' ss ' :K 1 :y 1 2 :ID 11;
#X obj 785 396 context :a ' | ' :b ' n (!n - 2) | ' :d 2 :e 1 :f 1
:h 1 :j 10 13 0 :n ' ss ' :p -1 :D 2 :E 1 :K 1 :P 1 :y 1 2 :ID 12;
#X floatatom 226 220 10 0 0 0 - - -, f 10;
#X obj 970 427 context :a ' n !n | n (`n + 3) | ' :b ' n (!n + 1) |
' :d 1 :e 1 :f 1 :j 6 0 0 :n ' ss ' :K 1 :x 1 3 :ID 13;
#X floatatom 881 64 5 0 0 0 - - -, f 5;
#X msg 222 84 connect 10.255.249.213 6000;
#X obj 371 178 scaler blues major c 3;
#X obj 616 337 pipe 1000;
#X obj 616 359 s bass-;
#X obj 811 474 context :a ' | ' :b ' n (!n - 2) | ' :d 2 :e 1 :f 1
:h 1 :j 10 13 :n ' ss ' :p -1 :D 2 :E 1 :K 1 :P 1 :y 1 2;
#X obj 161 464 ks2 ks 0 26.3027 0 58 0 66 0 19.9526 0 16.5959 0 44
2 0 53 0 62;
#X obj 161 407 pipe 2000;
#X floatatom 229 419 5 0 0 0 - - -, f 5;
#X obj 757 551 stutter feedback2 68 68 6.60693 15 1;
#X obj 161 429 * 2;
#X obj 180 621 cyclone/tanh~;
#X connect 0 0 1 0;
#X connect 0 0 1 1;
#X connect 0 0 8 1;
#X connect 3 3 5 3;
#X connect 7 0 1 1;
#X connect 7 0 1 0;
#X connect 7 0 8 1;
#X connect 8 0 1 1;
#X connect 8 0 1 0;
#X connect 10 0 13 0;
#X connect 12 0 9 0;
#X connect 13 0 12 0;
#X connect 15 0 20 0;
#X connect 16 0 8 0;
#X connect 16 0 2 1;
#X connect 19 0 8 0;
#X connect 20 0 27 0;
#X connect 24 0 34 0;
#X connect 24 2 6 2;
#X connect 26 0 9 0;
#X connect 27 0 23 0;
#X connect 27 0 13 0;
#X connect 27 0 0 0;
#X connect 27 0 28 0;
#X connect 27 0 32 0;
#X connect 28 0 29 0;
#X connect 31 0 36 0;
#X connect 32 0 33 0;
#X connect 32 0 35 0;
#X connect 34 0 1 1;
#X connect 34 0 1 0;
#X connect 35 0 31 0;
#X connect 36 0 34 1;
