#N canvas 65 210 1301 541 10;
#X obj 797 124 f 500;
#X obj 763 174 del 100;
#X obj 763 248 sig~;
#X obj 796 247 f 1;
#X obj 763 272 lop~;
#X obj 763 196 t b b;
#X obj 763 224 f 0.4;
#X obj 780 149 f 1;
#X obj 901 333 f 1;
#X obj 889 252 del 500;
#X obj 928 202 +;
#X obj 740 124 spigot 1;
#X obj 307 611 outlet~;
#X obj 734 65 inlet on;
#X obj 874 278 inlet off;
#X text 754 519 Liam Goodacre 2016 \, liam.goodacre@gmail.com;
#N canvas 65 125 450 330 (subpatch) 0;
#X array \$0-env 20000 float 2;
#X obj 209 194 r \$0-off;
#X obj 209 240 iemguts/sendcanvas;
#X obj 139 1 nbx 6 10 0 1e+37 0 1 \$0-sis \$0-sir empty 0 -8 0 10 -262144
-1 -1 20000 256;
#X msg 209 216 coords 0 \$2 \$4 \$3 200 30 \$1 0 0;
#X connect 1 0 4 0;
#X connect 4 0 2 0;
#X coords 0 0 20000 0 200 30 0;
#X restore 100 217 graph;
#X msg 486 336 resize \$1;
#X obj 486 358 s \$0-env;
#X obj 269 305 sel 0;
#X obj 269 327 t b f;
#X msg 309 351 1;
#X msg 543 368 0;
#X obj 733 328 tabwrite~ \$0-env;
#X obj 733 304 spigot;
#X obj 927 441 inlet~;
#X obj 307 588 *~;
#X obj 346 478 iemguts/canvasconnections;
#X obj 309 327 t b b b;
#X obj 346 500 list length;
#X obj 346 544 sig~;
#X obj 346 522 <= 2;
#X msg 346 455 inlet 2;
#X obj 355 307 * 1;
#X obj 874 334 f;
#X obj 543 409 pack f 1 0 20000;
#X obj 543 431 s \$0-off;
#X text 251 48 xfrom yfrom xto yto xsize ysize GOP xmargin ymargin
;
#X obj 103 96 slide attack a \$1 10 10000 1;
#X obj 125 96 slide decay d \$1 20 0.1 0;
#X obj 147 96 slide sustain s \$1 0 1 1;
#X obj 191 96 num attack_hold \$1 30;
#X obj 191 113 num sustain_hold \$1 200;
#X obj 191 130 num bottom \$1;
#X obj 191 147 num top \$1 1;
#X obj 191 163 tog auto_off \$1 1;
#X obj 191 183 tog preview \$1;
#X obj 928 179 t b f f;
#X obj 423 331 t f b f;
#X obj 331 284 t f b f b f;
#X obj 486 287 receive \$0-sis;
#X obj 486 311 t f b f;
#X obj 326 20 psave \$1;
#X obj 169 96 slide release r \$1 20 0.1 0;
#X obj 101 79 cnv 15 198 15 empty empty \$1 5 8 0 14 -204786 -66577
0;
#X msg 336 351 177;
#X msg 269 353 130;
#X obj 269 411 ctxfiles/myinit 2;
#X obj 269 435 iemguts/sendcanvas;
#X obj 692 42 receive \$1-start;
#X obj 1737 124 f 500;
#X obj 1703 174 del 100;
#X obj 1703 248 sig~;
#X obj 1736 247 f 1;
#X obj 1703 272 lop~;
#X obj 1703 196 t b b;
#X obj 1703 224 f 0.4;
#X obj 1720 149 f 1;
#X obj 1814 306 t b b;
#X obj 1841 333 f 1;
#X obj 1829 252 del 500;
#X obj 1868 202 +;
#X obj 1819 223 spigot 1;
#X text 1694 519 Liam Goodacre 2016 \, liam.goodacre@gmail.com;
#N canvas 65 129 450 330 (subpatch) 0;
#X array \$0-env2 20000 float 2;
#X obj 209 194 r \$0-off;
#X obj 209 240 iemguts/sendcanvas;
#X obj 139 1 nbx 6 10 0 1e+37 0 1 \$0-sis2 \$0-sir2 empty 0 -8 0 10
-262144 -1 -1 20000 256;
#X msg 209 216 coords 0 \$2 \$4 \$3 200 30 \$1 0 0;
#X connect 1 0 4 0;
#X connect 4 0 2 0;
#X coords 0 0 20000 0 200 30 0;
#X restore 300 217 graph;
#X msg 1426 336 resize \$1;
#X obj 1426 358 s \$0-env2;
#X msg 1483 368 0;
#X obj 1673 328 tabwrite~ \$0-env2;
#X obj 1673 304 spigot;
#X obj 1674 99 t b b b b b;
#X obj 1335 197 * 1;
#X obj 1814 334 f;
#X obj 1483 409 pack f 1 0 20000;
#X obj 1483 431 s \$0-off;
#X text 1187 58 xfrom yfrom xto yto xsize ysize GOP xmargin ymargin
;
#X obj 1868 179 t b f f;
#X obj 1403 221 t f b f;
#X obj 1311 174 t f b f b f;
#X obj 1426 311 t f b f;
#X obj 303 96 slide attack t \$1 10 10000 1;
#X obj 325 96 slide decay e \$1 20 0.1 0;
#X obj 347 96 slide sustain u \$1 0 1 1;
#X obj 369 96 slide release l \$1 20 0.1 0;
#X obj 391 96 num attack_hold2 \$1 30;
#X obj 391 113 num sustain_hold2 \$1 200;
#X obj 391 130 num bottom2 \$1;
#X obj 391 147 num top2 \$1 1;
#X obj 1710 476 outlet~;
#X msg 269 388 menu-open \, coords 0 -1 1 1 410 \$1 2 100 76 \, vis
0;
#X obj 734 99 t b b b b b b;
#X obj 303 79 cnv 15 198 15 empty empty \$2 5 8 0 14 -204786 -66577
0;
#X obj 874 306 t b b b;
#X obj 1426 287 receive \$0-sis2;
#X connect 0 0 4 1;
#X connect 1 0 5 0;
#X connect 2 0 4 0;
#X connect 3 0 4 1;
#X connect 4 0 23 0;
#X connect 4 0 26 1;
#X connect 5 0 6 0;
#X connect 5 1 3 0;
#X connect 6 0 2 0;
#X connect 7 0 2 0;
#X connect 8 0 4 1;
#X connect 9 0 102 0;
#X connect 10 0 9 1;
#X connect 11 0 9 0;
#X connect 13 0 100 0;
#X connect 14 0 102 0;
#X connect 17 0 18 0;
#X connect 19 0 20 0;
#X connect 19 1 28 0;
#X connect 20 0 56 0;
#X connect 20 1 35 0;
#X connect 21 0 35 0;
#X connect 22 0 35 0;
#X connect 24 0 23 0;
#X connect 25 0 26 0;
#X connect 26 0 12 0;
#X connect 27 0 29 0;
#X connect 28 0 21 0;
#X connect 28 1 55 0;
#X connect 28 2 32 0;
#X connect 29 0 31 0;
#X connect 30 0 26 0;
#X connect 31 0 30 0;
#X connect 32 0 27 0;
#X connect 33 0 6 1;
#X connect 34 0 2 0;
#X connect 35 0 36 0;
#X connect 38 0 0 1;
#X connect 39 0 3 1;
#X connect 40 0 33 0;
#X connect 41 0 47 0;
#X connect 42 0 10 0;
#X connect 43 0 48 0;
#X connect 44 0 49 0;
#X connect 45 0 11 1;
#X connect 45 0 72 1;
#X connect 46 0 24 1;
#X connect 46 0 19 0;
#X connect 47 0 10 0;
#X connect 47 1 10 1;
#X connect 47 2 1 1;
#X connect 48 0 34 1;
#X connect 48 1 35 0;
#X connect 48 2 35 2;
#X connect 49 0 7 1;
#X connect 49 1 33 0;
#X connect 49 2 33 1;
#X connect 49 3 35 0;
#X connect 49 4 35 1;
#X connect 50 0 51 0;
#X connect 51 0 17 0;
#X connect 51 1 35 0;
#X connect 51 2 35 3;
#X connect 53 0 8 1;
#X connect 55 0 99 0;
#X connect 56 0 99 0;
#X connect 57 0 58 0;
#X connect 59 0 100 0;
#X connect 60 0 64 1;
#X connect 61 0 65 0;
#X connect 62 0 64 0;
#X connect 63 0 64 1;
#X connect 64 0 78 0;
#X connect 64 0 98 0;
#X connect 65 0 66 0;
#X connect 65 1 63 0;
#X connect 66 0 62 0;
#X connect 67 0 62 0;
#X connect 68 0 82 0;
#X connect 68 1 69 0;
#X connect 69 0 64 1;
#X connect 70 0 68 0;
#X connect 71 0 70 1;
#X connect 72 0 70 0;
#X connect 75 0 76 0;
#X connect 77 0 83 0;
#X connect 79 0 78 0;
#X connect 80 0 79 0;
#X connect 80 1 72 0;
#X connect 80 2 61 0;
#X connect 80 3 67 0;
#X connect 80 4 60 0;
#X connect 81 0 66 1;
#X connect 82 0 62 0;
#X connect 83 0 84 0;
#X connect 86 0 71 0;
#X connect 86 1 71 1;
#X connect 86 2 61 1;
#X connect 87 0 82 1;
#X connect 87 1 83 0;
#X connect 87 2 83 2;
#X connect 88 0 67 1;
#X connect 88 1 81 0;
#X connect 88 2 81 1;
#X connect 88 3 83 0;
#X connect 88 4 83 1;
#X connect 89 0 75 0;
#X connect 89 1 83 0;
#X connect 89 2 83 3;
#X connect 90 0 60 1;
#X connect 91 0 63 1;
#X connect 92 0 81 0;
#X connect 93 0 69 1;
#X connect 94 0 86 0;
#X connect 95 0 71 0;
#X connect 96 0 87 0;
#X connect 97 0 88 0;
#X connect 99 0 57 0;
#X connect 100 0 24 0;
#X connect 100 1 11 0;
#X connect 100 2 1 0;
#X connect 100 3 7 0;
#X connect 100 4 0 0;
#X connect 100 5 80 0;
#X connect 102 0 34 0;
#X connect 102 1 8 0;
#X connect 102 2 68 0;
#X connect 103 0 89 0;
#X coords 0 -1 1 1 410 130 2 100 76;
