#N canvas 525 337 450 427 10;
#X obj 265 73 t f b b b;
#X msg 305 135 1;
#X obj 304 286 lop~;
#X obj 305 163 sig~;
#X obj 285 101 del 20;
#X obj 264 135 t f b;
#X obj 265 310 *~;
#X obj 265 354 outlet~;
#X obj 266 221 *~ 1;
#X obj 266 249 cyclone/tanh~;
#X obj 265 196 osc~;
#X obj 265 29 receive \$1-;
#X obj 104 104 slide overdr o \$1 0 6;
#X obj 170 104 slide volume v \$1 0 1.2;
#X obj 265 332 *~;
#X obj 148 104 slide decay d \$1 5 0;
#X obj 268 164 f 1.4;
#X obj 131 23 psave \$1;
#X obj 126 104 slide attack a \$1 0 1000;
#X obj 325 191 f 100;
#X obj 102 213 cnv 15 89 15 empty empty \$1 0 8 0 14 -233017 -66577
0;
#X obj 265 51 route float;
#X connect 0 0 10 0;
#X connect 0 1 4 0;
#X connect 0 2 1 0;
#X connect 0 3 19 0;
#X connect 1 0 3 0;
#X connect 2 0 6 1;
#X connect 3 0 2 0;
#X connect 4 0 5 0;
#X connect 5 0 3 0;
#X connect 5 1 16 0;
#X connect 6 0 14 0;
#X connect 8 0 9 0;
#X connect 9 0 6 0;
#X connect 10 0 8 0;
#X connect 11 0 21 0;
#X connect 12 0 8 1;
#X connect 13 0 14 1;
#X connect 14 0 7 0;
#X connect 15 0 16 1;
#X connect 16 0 2 1;
#X connect 18 0 19 1;
#X connect 19 0 2 1;
#X connect 21 0 0 0;
#X coords 0 -1 1 1 92 130 2 100 100;
