#N canvas 533 225 562 518 10;
#X msg 395 158 1;
#X obj 394 349 lop~;
#X obj 395 186 sig~;
#X obj 375 124 del 20;
#X obj 354 158 t f b;
#X obj 355 373 *~;
#X obj 355 417 outlet~;
#X obj 356 284 *~ 1;
#X obj 356 312 cyclone/tanh~;
#X obj 355 219 osc~;
#X obj 355 52 receive \$1-;
#X obj 192 104 slide volume v \$1 0 1.2;
#X obj 355 395 *~;
#X obj 170 104 slide decay d \$1 5 0;
#X obj 358 187 f 1.4;
#X obj 131 23 psave \$1;
#X obj 148 104 slide attack a \$1 0 1000;
#X obj 415 214 f 100;
#X obj 102 213 cnv 15 89 15 empty empty \$1 0 8 0 14 -233017 -66577
0;
#X obj 355 74 route float;
#X obj 305 167 -~ 0.5;
#X obj 305 189 abs~;
#X obj 305 211 *~ 4;
#X obj 305 233 -~ 1;
#X obj 305 145 phasor~;
#X obj 355 96 t f f b b b;
#X obj 103 104 slide shape s \$1 0 1;
#X obj 248 212 t f f;
#X obj 248 234 swap 1;
#X obj 248 256 -;
#X obj 305 255 *~;
#X obj 355 241 *~ 1;
#X obj 165 214 num tune \$1 1 3 1;
#X obj 305 123 * 1;
#X obj 126 104 slide overdr o \$1 1 6;
#X connect 0 0 2 0;
#X connect 1 0 5 1;
#X connect 2 0 1 0;
#X connect 3 0 4 0;
#X connect 4 0 2 0;
#X connect 4 1 14 0;
#X connect 5 0 12 0;
#X connect 7 0 8 0;
#X connect 8 0 5 0;
#X connect 9 0 31 0;
#X connect 10 0 19 0;
#X connect 11 0 12 1;
#X connect 12 0 6 0;
#X connect 13 0 14 1;
#X connect 14 0 1 1;
#X connect 16 0 17 1;
#X connect 17 0 1 1;
#X connect 19 0 25 0;
#X connect 20 0 21 0;
#X connect 21 0 22 0;
#X connect 22 0 23 0;
#X connect 23 0 30 0;
#X connect 24 0 20 0;
#X connect 25 0 33 0;
#X connect 25 1 9 0;
#X connect 25 2 3 0;
#X connect 25 3 0 0;
#X connect 25 4 17 0;
#X connect 26 0 27 0;
#X connect 27 0 28 0;
#X connect 27 1 30 1;
#X connect 28 0 29 0;
#X connect 28 1 29 1;
#X connect 29 0 31 1;
#X connect 30 0 7 0;
#X connect 31 0 7 0;
#X connect 32 0 33 1;
#X connect 33 0 24 0;
#X connect 34 0 7 1;
#X coords 0 -1 1 1 112 130 2 100 100;
