#N canvas 65 105 1248 687 10;
#X obj 502 52 cnv 15 467 246 empty empty SIMPLE_(HARD)_COMPRESSOR/LIMITER
20 12 0 18 -203904 -66577 0;
#X obj 97 111 env~ 2048;
#X obj 29 687 *~;
#X obj 43 658 line~;
#X obj 97 156 dbtorms;
#X obj 97 135 + 5;
#X text 981 -7 lcb 09.24.2005;
#X obj 97 66 inlet~;
#X text 982 5 updated 09.30.2005 after testing;
#X obj 114 91 delwrite~ \$0-compdelay 25;
#X obj 28 40 delread~ \$0-compdelay 25;
#X obj 512 99 hsl 128 15 0.341306 1 0 0 empty empty limit -2 -8 0 10
-262144 -1 -1 0 1;
#X obj 513 212 hsl 50 15 0 10 0 0 empty empty attack?(ms) -2 -8 0 10
-262144 -1 -1 0 1;
#X obj 97 183 t f b;
#X obj 757 342 v compceil;
#X floatatom 643 100 8 0 0 0 - - #0-ceiling, f 8;
#X floatatom 646 166 8 0 0 0 - - #0-basement, f 8;
#X floatatom 510 314 5 0 0 0 - - -, f 5;
#X obj 512 166 hsl 128 15 0 0.341306 0 0 empty empty threshold -2 -8
0 10 -262144 -1 -1 0 1;
#X floatatom 900 250 8 0 0 0 env #0-envS -, f 8;
#X floatatom 645 130 8 0 0 0 - - #0-floor, f 8;
#X obj 512 129 hsl 128 15 0 0 0 0 empty empty ratio -2 -8 0 10 -262144
-1 -1 0 1;
#X obj 93 611 pack, f 5;
#X obj 93 504 t f b;
#X obj 120 554 pack f;
#X msg 120 576 \$1;
#X obj 247 556 pack, f 5;
#X obj 247 475 t f b;
#X obj 300 514 pack f;
#X msg 300 536 \$1;
#X obj 246 375 pack f;
#X msg 246 399 \$1;
#X obj 246 353 v compfloor;
#X obj 246 305 - 0.02;
#X obj 246 423 /;
#X obj 247 449 *;
#X obj 246 329 t b f f;
#X obj 408 349 t b f;
#X obj 408 456 /;
#X obj 408 572 pack;
#X obj 408 476 t f b;
#X obj 409 320 + 0.02;
#X obj 408 378 v compceil;
#X obj 408 400 pack f;
#X msg 408 422 \$1;
#X obj 435 526 pack f;
#X msg 435 548 \$1;
#X obj 916 338 v basement;
#X obj 841 342 v compfloor;
#X obj 273 228 v compfloor;
#X floatatom 273 247 5 0 0 0 - - -, f 5;
#X obj 246 270 moses;
#X floatatom 409 258 5 0 0 0 - - -, f 5;
#X obj 382 287 moses;
#X obj 409 239 v compceil;
#X floatatom 124 231 5 0 0 0 - - -, f 5;
#X obj 97 253 moses;
#X obj 124 208 v basement;
#X obj 758 316 r \$0-ceiling;
#N canvas 0 50 450 250 (subpatch) 0;
#X array \$0-ramps 3 float 1;
#A 0 0 0.341306 0.341306;
#X coords 0 1 2 0 200 140 1 0 0;
#X restore 702 100 graph;
#X obj 900 269 s \$0-env;
#N canvas 3 54 450 250 (subpatch) 0;
#X array \$0-meter 1 float 3;
#A 0 1.77828e-05;
#X coords 0 1 1 0 50 140 1 0 0;
#X restore 902 100 graph;
#X msg 1080 467 0;
#X obj 1004 424 r \$0-env;
#X msg 167 276 1;
#X msg 167 302 2;
#X msg 167 328 3;
#X msg 167 354 4;
#X obj 167 380 s \$0-meter;
#X obj 703 257 hradio 20 1 0 5 empty \$0-meter which_range 0 -8 0 10
-262144 -1 -1 4;
#X text 983 18 http://audioprogrammingblog.wordpress.com/;
#X text 981 34 [ADSR using vline~];
#X floatatom 31 14 5 0 0 2 lookahead #0-complookR -, f 5;
#X obj 512 280 hsl 128 15 0 100 0 0 \$0-complookR empty lookahead(ms)
-2 -8 0 10 -262144 -1 -1 0 1;
#X floatatom 643 280 8 0 0 0 - - -, f 8;
#X obj 987 648 -, f 2;
#X floatatom 646 183 8 0 0 0 above_env #0-aboveenv -, f 8;
#X obj 562 700 line~;
#X obj 592 676 pack, f 5;
#X obj 592 589 t f b;
#X obj 631 631 pack f;
#X msg 631 653 \$1;
#X obj 631 609 v compramp;
#X obj 594 541 +;
#X floatatom 593 567 5 0 0 0 - - -, f 5;
#X obj 617 514 v compceil;
#X obj 28 716 *~;
#X floatatom 645 247 8 0 0 0 - - -, f 8;
#X obj 29 747 outlet~;
#X obj 987 674 * -1000;
#X obj 987 700 int;
#X obj 987 729 / 1000;
#X obj 906 429 r \$0-basement;
#X obj 836 429 r \$0-floor;
#X obj 756 428 r \$0-ceiling;
#X msg 869 507 1;
#X msg 824 507 0;
#X msg 922 507 2;
#X obj 1017 631 r \$0-basementpercS;
#X obj 987 604 r \$0-env;
#X obj 186 173 s \$0-envS;
#X obj 987 751 s \$0-aboveenv;
#X obj 594 416 r \$0-compmakeupR;
#X floatatom 198 61 5 0 0 2 lookahead #0-complookR -, f 5;
#X text 760 412 draw the ramps;
#X text 1003 408 draw the meter;
#N canvas 3 54 1425 818 updateControls 0;
#X obj 508 266 pack f f;
#X msg 508 315 range \$1 \$2;
#X obj 336 267 pack f f;
#X msg 336 312 range \$1 \$2;
#X obj 171 266 pack f f;
#X msg 171 315 range \$1 \$2;
#X msg 171 217 0;
#X msg 589 237 1;
#X obj 171 266 pack f f;
#X msg 171 315 range \$1 \$2;
#X obj 216 240 v compfloor;
#X obj 508 237 v compfloor;
#X obj 336 242 v basement;
#X obj 405 241 v compceil;
#X obj 508 352 outlet;
#X obj 171 351 outlet;
#X obj 336 347 outlet;
#X obj 463 75 inlet;
#X obj 262 70 inlet;
#X obj 383 73 inlet;
#X msg 262 174 bang;
#X msg 463 182 bang;
#X msg 383 180 bang;
#X obj 646 281 pack f f;
#X msg 646 316 range \$1 \$2;
#X obj 646 356 outlet;
#X obj 691 231 v compceil;
#X obj 692 252 expr 1-$f1;
#X msg 646 240 0;
#X msg 646 192 bang;
#X text 270 396 sync/scale the hsliders so their left and right values
\; fall within the correct range;
#X connect 0 0 1 0;
#X connect 1 0 14 0;
#X connect 2 0 3 0;
#X connect 3 0 16 0;
#X connect 4 0 5 0;
#X connect 5 0 15 0;
#X connect 6 0 4 0;
#X connect 7 0 0 1;
#X connect 8 0 9 0;
#X connect 10 0 4 1;
#X connect 11 0 0 0;
#X connect 12 0 2 0;
#X connect 13 0 2 1;
#X connect 17 0 21 0;
#X connect 17 0 29 0;
#X connect 18 0 20 0;
#X connect 19 0 22 0;
#X connect 20 0 12 0;
#X connect 20 0 13 0;
#X connect 21 0 12 0;
#X connect 21 0 13 0;
#X connect 22 0 10 0;
#X connect 22 0 6 0;
#X connect 22 0 11 0;
#X connect 22 0 7 0;
#X connect 23 0 24 0;
#X connect 24 0 25 0;
#X connect 26 0 27 0;
#X connect 27 0 23 1;
#X connect 28 0 23 0;
#X connect 29 0 28 0;
#X connect 29 0 26 0;
#X restore 336 135 pd updateControls;
#N canvas 0 50 450 250 (subpatch) 0;
#X array \$0-meterLimit 1 float 3;
#A 0 0;
#X coords 0 1 1 0 50 140 1 0 0;
#X restore 902 100 graph;
#X msg 831 648 0;
#X obj 755 604 r \$0-basement;
#X text 752 584 draw the NoiseGate;
#X obj 841 316 r \$0-floor;
#X obj 915 317 r \$0-basement;
#X obj 582 212 hsl 50 15 50 2000 0 0 empty empty decay?(ms) -2 -8 0
10 -262144 -1 -1 0 1;
#X floatatom 580 365 5 0 0 0 - - -, f 5;
#X obj 581 383 v comprampDown;
#X obj 510 332 v comprampUp;
#X obj 300 492 v comprampUp;
#X obj 435 504 v comprampDown;
#X obj 648 211 hsl 50 15 0 1 0 0 empty empty %_drop -2 -8 0 10 -262144
-1 -1 0 1;
#X floatatom 645 230 5 0 0 0 - - -, f 5;
#X obj 645 314 v percDrop;
#X text 983 -20 based on simple look-ahead peak-limiter;
#X text 629 338 so it does not \; go completely to 0;
#X obj 120 449 *;
#X obj 120 532 v comprampDown;
#X obj 120 410 v basement;
#X obj 139 429 v percDrop;
#X obj 97 386 v basement;
#X obj 97 474 -;
#X obj 97 362 t b b;
#X msg 96 292 bang;
#X text 537 210 0-10;
#X text 588 212 50-2000;
#X obj 1004 315 r \$0-compmakeupR;
#X obj 1004 338 v makeup;
#X msg 594 438 bang;
#X obj 594 490 v makeup;
#X text 757 364 write the control values to be banged in the moses
limiters \;;
#X text 967 531 draw the above_env \; how far above or below the env
\; the noisegate/thrsehold is \; += the threshold is above the noise
\; -=the theshold is below the noise;
#X text 320 87 rwewrite the control \; limits according to \; the other
values;
#X text 16 314 drop everything \; below the thesshold \; to a % of
that number;
#X text 273 413 raise everything \; above the threshold \; to the middle
"ratio" \; value;
#X text 450 456 bring everything \; above the limit \; down to the
limit \;;
#X text 455 628 raise the final out \; from the limit to 1 \;;
#X text 607 280 0-100;
#X obj 756 535 tabwrite \$0-ramps;
#X obj 1004 501 tabwrite \$0-meter;
#X obj 755 682 tabwrite \$0-meterLimit;
#X obj 1026 182 t b f;
#X obj 1043 160 t b f;
#X obj 1060 139 t b f;
#X obj 1076 117 t b f;
#X obj 1093 95 t b f;
#X obj 1110 73 t b f;
#X obj 514 248 hsl 128 15 0 0 0 0 \$0-compmakeupR empty makeupgain
-2 -8 0 10 -262144 -1 -1 0 1;
#X obj 1037 204 pack f f f f f f f f;
#X obj 1126 50 t b f;
#X obj 1037 259 iemguts/canvasargs;
#X obj 1168 207 loadbang;
#X obj 1168 229 t b b;
#X obj 1037 229 spigot;
#X msg 1168 251 1;
#X obj 1037 281 unpack f f f f f f f f;
#X connect 1 0 5 0;
#X connect 2 0 86 0;
#X connect 3 0 2 1;
#X connect 4 0 13 0;
#X connect 4 0 100 0;
#X connect 5 0 4 0;
#X connect 7 0 1 0;
#X connect 7 0 9 0;
#X connect 10 0 2 0;
#X connect 11 0 15 0;
#X connect 11 0 106 2;
#X connect 11 0 156 0;
#X connect 12 0 17 0;
#X connect 12 0 151 0;
#X connect 13 0 56 0;
#X connect 13 1 54 0;
#X connect 13 1 49 0;
#X connect 13 1 57 0;
#X connect 17 0 116 0;
#X connect 18 0 16 0;
#X connect 18 0 106 0;
#X connect 18 0 150 0;
#X connect 19 0 60 0;
#X connect 21 0 20 0;
#X connect 21 0 106 1;
#X connect 21 0 149 0;
#X connect 22 0 3 0;
#X connect 23 0 22 0;
#X connect 23 1 125 0;
#X connect 24 0 25 0;
#X connect 25 0 22 1;
#X connect 26 0 3 0;
#X connect 27 0 26 0;
#X connect 27 1 117 0;
#X connect 28 0 29 0;
#X connect 29 0 26 1;
#X connect 30 0 31 0;
#X connect 31 0 34 0;
#X connect 32 0 30 0;
#X connect 33 0 36 0;
#X connect 34 0 35 0;
#X connect 35 0 27 0;
#X connect 36 0 32 0;
#X connect 36 1 34 1;
#X connect 36 2 35 1;
#X connect 37 0 42 0;
#X connect 37 1 38 1;
#X connect 38 0 40 0;
#X connect 39 0 3 0;
#X connect 40 0 39 0;
#X connect 40 1 118 0;
#X connect 41 0 37 0;
#X connect 42 0 43 0;
#X connect 43 0 44 0;
#X connect 44 0 38 0;
#X connect 45 0 46 0;
#X connect 46 0 39 1;
#X connect 49 0 50 0;
#X connect 50 0 51 1;
#X connect 51 0 65 0;
#X connect 51 0 33 0;
#X connect 51 1 53 0;
#X connect 52 0 53 1;
#X connect 53 0 66 0;
#X connect 53 1 41 0;
#X connect 53 1 67 0;
#X connect 54 0 52 0;
#X connect 55 0 56 1;
#X connect 56 0 131 0;
#X connect 56 0 64 0;
#X connect 56 1 51 0;
#X connect 57 0 55 0;
#X connect 58 0 14 0;
#X connect 62 0 147 1;
#X connect 63 0 62 0;
#X connect 63 0 147 0;
#X connect 64 0 68 0;
#X connect 65 0 68 0;
#X connect 66 0 68 0;
#X connect 67 0 68 0;
#X connect 72 0 10 0;
#X connect 73 0 74 0;
#X connect 73 0 157 0;
#X connect 75 0 89 0;
#X connect 77 0 86 1;
#X connect 78 0 77 0;
#X connect 79 0 78 0;
#X connect 79 1 82 0;
#X connect 80 0 81 0;
#X connect 81 0 78 1;
#X connect 82 0 80 0;
#X connect 83 0 84 0;
#X connect 84 0 79 0;
#X connect 85 0 83 1;
#X connect 86 0 88 0;
#X connect 89 0 90 0;
#X connect 90 0 91 0;
#X connect 91 0 101 0;
#X connect 92 0 96 0;
#X connect 92 0 146 0;
#X connect 93 0 95 0;
#X connect 93 0 146 0;
#X connect 94 0 97 0;
#X connect 94 0 146 0;
#X connect 95 0 146 1;
#X connect 96 0 146 1;
#X connect 97 0 146 1;
#X connect 98 0 75 1;
#X connect 99 0 75 0;
#X connect 102 0 136 0;
#X connect 103 0 9 0;
#X connect 106 0 18 0;
#X connect 106 1 21 0;
#X connect 106 2 11 0;
#X connect 106 3 155 0;
#X connect 108 0 148 1;
#X connect 109 0 108 0;
#X connect 109 0 148 0;
#X connect 111 0 48 0;
#X connect 112 0 47 0;
#X connect 113 0 114 0;
#X connect 113 0 152 0;
#X connect 114 0 115 0;
#X connect 117 0 28 0;
#X connect 118 0 45 0;
#X connect 119 0 120 0;
#X connect 119 0 153 0;
#X connect 120 0 121 0;
#X connect 124 0 129 1;
#X connect 125 0 24 0;
#X connect 126 0 124 0;
#X connect 127 0 124 1;
#X connect 128 0 129 0;
#X connect 129 0 23 0;
#X connect 130 0 128 0;
#X connect 130 1 126 0;
#X connect 130 1 127 0;
#X connect 131 0 130 0;
#X connect 134 0 135 0;
#X connect 136 0 137 0;
#X connect 136 0 85 0;
#X connect 137 0 83 0;
#X connect 149 0 156 0;
#X connect 149 1 156 1;
#X connect 150 0 156 0;
#X connect 150 1 156 2;
#X connect 151 0 156 0;
#X connect 151 1 156 3;
#X connect 152 0 156 0;
#X connect 152 1 156 4;
#X connect 153 0 156 0;
#X connect 153 1 156 5;
#X connect 154 0 156 0;
#X connect 154 1 156 6;
#X connect 155 0 87 0;
#X connect 155 0 154 0;
#X connect 156 0 161 0;
#X connect 157 0 156 0;
#X connect 157 1 156 7;
#X connect 158 0 163 0;
#X connect 159 0 160 0;
#X connect 160 0 162 0;
#X connect 160 1 158 0;
#X connect 161 0 158 0;
#X connect 162 0 161 1;
#X connect 163 0 11 0;
#X connect 163 1 21 0;
#X connect 163 2 18 0;
#X connect 163 3 12 0;
#X connect 163 4 113 0;
#X connect 163 5 119 0;
#X connect 163 6 155 0;
#X connect 163 7 73 0;
#X coords 0 -1 1 1 470 250 1 500 50;
