#N canvas 541 94 450 427 12;
#X obj 72 360 outlet~;
#X obj 126 102 slide attack a \$1 0 10000;
#X obj 193 192 num detune \$1 1 5 2;
#X obj 193 158 num x \$1 0 2 2;
#X obj 211 158 num y \$1 0 2 2;
#X text 117 34 note res attack decay type (1 2) detune double;
#X obj 45 142 inlet;
#X obj 45 166 t b f;
#X obj 72 286 list trim;
#X obj 170 102 slide volume v \$1 0 1;
#X obj 72 336 *~;
#X obj 238 341 psave \$1;
#X obj 148 102 slide decay d \$1 5 0.01;
#X obj 103 102 slide2 res r \$1 0 100;
#X obj 72 261 zexy/pack next 300 0 1000 6 1 1 1 0 1;
#X obj 72 312 clone 4 mycz;
#X obj 126 209 cnv 15 100 15 empty empty \$1 5 8 0 14 -233017 -66577
0;
#X obj 192 125 tog 2nd \$1;
#X obj 15 91 receive \$1-;
#X obj 15 115 route float;
#X connect 1 0 14 3;
#X connect 2 0 14 7;
#X connect 3 0 14 5;
#X connect 4 0 14 6;
#X connect 6 0 7 0;
#X connect 7 0 14 0;
#X connect 7 1 14 1;
#X connect 8 0 15 0;
#X connect 9 0 10 1;
#X connect 10 0 0 0;
#X connect 12 0 14 4;
#X connect 13 0 14 2;
#X connect 13 1 14 9;
#X connect 14 0 8 0;
#X connect 15 0 10 0;
#X connect 17 0 14 8;
#X connect 18 0 19 0;
#X connect 19 0 7 0;
#X coords 0 -1 1 1 130 128 2 100 100;
