#N canvas 396 104 450 708 12;
#X obj 147 290 phasor~;
#N canvas 426 236 450 369 2nd 0;
#X obj 121 10 inlet~;
#X obj 236 2 inlet;
#X obj 357 171 inlet;
#X obj 357 195 switch~;
#X obj 199 182 cz-osc~ saw;
#X obj 199 206 outlet~;
#X obj 52 64 min~ 0.5;
#X obj 121 64 max~ 0.5;
#X obj 52 114 outlet~;
#X obj 236 155 line~ 100;
#X obj 268 56 >= 5;
#X obj 236 130 pow 0.33333;
#X obj 236 82 demux;
#X obj 236 106 * 0.01;
#X obj 285 106 * 0.65;
#X obj 171 10 inlet;
#X obj 236 26 t f f;
#X obj 52 88 *~ 2;
#X obj 121 88 -~ 0.5;
#X obj 121 112 *~ 2;
#X obj 309 8 inlet;
#X obj 122 161 wrap~;
#X obj 122 137 *~ 1;
#X connect 0 0 6 0;
#X connect 0 0 7 0;
#X connect 1 0 16 0;
#X connect 2 0 3 0;
#X connect 4 0 5 0;
#X connect 6 0 17 0;
#X connect 7 0 18 0;
#X connect 9 0 4 1;
#X connect 10 0 12 1;
#X connect 11 0 9 0;
#X connect 12 0 13 0;
#X connect 12 1 14 0;
#X connect 13 0 11 0;
#X connect 14 0 9 0;
#X connect 15 0 12 0;
#X connect 16 0 4 2;
#X connect 16 1 10 0;
#X connect 17 0 8 0;
#X connect 18 0 19 0;
#X connect 19 0 22 0;
#X connect 20 0 22 1;
#X connect 21 0 4 0;
#X connect 22 0 21 0;
#X restore 185 341 pd 2nd;
#X obj 147 376 cz-osc~ saw;
#X obj 248 305 line~ 100;
#X obj 280 206 >= 5;
#X obj 248 280 pow 0.33333;
#X obj 248 232 demux;
#X obj 77 0 inlet note;
#X obj 147 96 t f b b b;
#X obj 248 256 * 0.01;
#X obj 297 256 * 0.65;
#X obj 148 405 +~;
#X obj 187 124 del 10;
#X obj 207 153 t f;
#X obj 187 479 spigot;
#X msg 187 148 1;
#X msg 167 124 1;
#X obj 187 454 env~;
#X obj 187 503 > 0.01;
#X obj 127 455 outlet~;
#X obj 147 315 demux~;
#X obj 234 154 t b f b f;
#X obj 187 529 switch~;
#X obj 77 222 lop~;
#X obj 77 172 t f b;
#X obj 109 197 f;
#X obj 148 429 *~;
#X obj 228 53 t f f f;
#X obj 237 96 spigot;
#X obj 77 25 unpack f f f f f f f f f;
#X msg 264 527 1;
#X connect 0 0 20 0;
#X connect 1 0 2 0;
#X connect 1 1 11 1;
#X connect 2 0 11 0;
#X connect 3 0 2 1;
#X connect 4 0 6 1;
#X connect 5 0 3 0;
#X connect 6 0 9 0;
#X connect 6 1 10 0;
#X connect 7 0 29 0;
#X connect 8 0 0 0;
#X connect 8 1 16 0;
#X connect 8 2 12 0;
#X connect 8 3 13 0;
#X connect 9 0 5 0;
#X connect 10 0 3 0;
#X connect 11 0 26 0;
#X connect 12 0 15 0;
#X connect 12 0 24 0;
#X connect 13 0 14 1;
#X connect 14 0 18 0;
#X connect 15 0 14 1;
#X connect 16 0 22 0;
#X connect 16 0 23 0;
#X connect 17 0 14 0;
#X connect 18 0 22 0;
#X connect 20 0 2 0;
#X connect 20 1 1 0;
#X connect 21 1 2 2;
#X connect 21 2 6 0;
#X connect 21 3 4 0;
#X connect 23 0 26 1;
#X connect 24 0 23 0;
#X connect 24 1 25 0;
#X connect 25 0 23 1;
#X connect 26 0 19 0;
#X connect 26 0 17 0;
#X connect 27 0 1 4;
#X connect 27 1 20 0;
#X connect 27 2 28 1;
#X connect 28 0 1 2;
#X connect 29 0 8 0;
#X connect 29 1 6 0;
#X connect 29 2 23 1;
#X connect 29 3 25 1;
#X connect 29 4 21 0;
#X connect 29 5 28 0;
#X connect 29 6 1 3;
#X connect 29 7 27 0;
#X connect 29 8 1 1;
#X connect 30 0 22 0;
