#N canvas 685 153 502 497 10;
#X obj 246 61 loadbang;
#X obj 297 105 + 1;
#X obj 246 105 t f f f;
#X obj 319 210 pack;
#X obj 346 138 receive \$0-ts;
#X obj 185 195 iemguts/oreceive \$0n;
#X obj 185 217 s \$0-tr;
#X obj 346 160 t f f f;
#X obj 385 183 outlet;
#X obj 365 205 send \$1;
#X obj 246 83 value v\$2;
#X obj 185 170 makefilename \$2-%d;
#X floatatom 100 100 5 0 0 1 #1 #0-tr #0-ts, f 5;
#X obj 211 84 f \$3;
#X obj 319 232 s \$2-*;
#X obj 146 197 inlet;
#X obj 302 349 s \$0-tr;
#X floatatom 304 263 5 0 0 0 - - -, f 5;
#X obj 263 282 list \$4 \$1 \$0 \$5;
#X obj 263 304 route 0;
#X obj 256 426 iemguts/sendcanvas;
#X text 118 17 ARGS: label \, group name \, init \, size \, label pos
;
#X floatatom 131 242 5 0 0 0 - - -, f 5;
#X msg 131 283 \$1 lab \$2 1;
#X obj 131 261 pack f \$0;
#X msg 302 327 param \$1 0 0 \$2 \$4 \$3-tr \$3-ts;
#X obj 256 337 t f;
#X obj 256 360 * 6;
#X obj 256 382 + 2;
#X msg 256 404 coords 0 -1 1 1 \$1 14 2 100 100 \, dirty 0;
#X obj 379 92 s \$0-tr;
#X obj 379 48 receive \$2-;
#X obj 379 70 route \$1-;
#X connect 0 0 10 0;
#X connect 0 0 13 0;
#X connect 0 0 18 0;
#X connect 1 0 10 0;
#X connect 2 0 11 0;
#X connect 2 1 3 1;
#X connect 2 2 1 0;
#X connect 3 0 14 0;
#X connect 4 0 7 0;
#X connect 5 0 6 0;
#X connect 7 0 3 0;
#X connect 7 1 9 0;
#X connect 7 2 8 0;
#X connect 10 0 2 0;
#X connect 11 0 5 0;
#X connect 13 0 6 0;
#X connect 15 0 6 0;
#X connect 17 0 18 0;
#X connect 18 0 19 0;
#X connect 19 1 25 0;
#X connect 19 1 26 0;
#X connect 22 0 24 0;
#X connect 23 0 19 0;
#X connect 24 0 23 0;
#X connect 25 0 16 0;
#X connect 26 0 27 0;
#X connect 27 0 28 0;
#X connect 28 0 29 0;
#X connect 29 0 20 0;
#X connect 31 0 32 0;
#X connect 32 0 30 0;
#X coords 0 -1 1 1 32 14 2 100 100;
