#N canvas 196 105 651 461 10;
#X obj 251 1 loadbang;
#X obj 251 23 del 10;
#X obj 326 113 array define s\$1 1;
#X obj 266 279 array get s\$1;
#X obj 296 253 array set s\$1;
#X obj 266 301 list-abs/list-enumerate;
#X obj 155 98 tabwrite s\$1;
#X obj 128 75 t b l;
#X obj 128 122 array get s\$1;
#X msg 251 69 1;
#X obj 128 45 spigot;
#X obj 326 67 value v\$1;
#X msg 326 90 resize \$1;
#X obj 311 136 iemguts/canvasargs 1;
#X obj 266 323 list append \$1;
#X msg 266 345 \; \$3-\$1 \$2;
#X obj 311 181 route symbol;
#X obj 281 206 ctxfiles/ex01;
#X obj 296 229 ctxfiles/ex01;
#X obj 251 45 t b b b b b b;
#X obj 128 144 list prepend;
#X obj 311 158 cyclone/iter;
#X obj 128 23 receive \$1-*;
#X connect 0 0 1 0;
#X connect 1 0 19 0;
#X connect 3 0 5 0;
#X connect 5 0 14 0;
#X connect 7 0 8 0;
#X connect 7 1 6 0;
#X connect 8 0 20 0;
#X connect 9 0 10 1;
#X connect 10 0 7 0;
#X connect 11 0 12 0;
#X connect 12 0 2 0;
#X connect 13 0 21 0;
#X connect 14 0 15 0;
#X connect 16 0 17 1;
#X connect 16 1 18 1;
#X connect 17 0 20 1;
#X connect 18 0 4 0;
#X connect 19 0 9 0;
#X connect 19 1 3 0;
#X connect 19 2 17 0;
#X connect 19 3 18 0;
#X connect 19 4 13 0;
#X connect 19 5 11 0;
#X connect 20 0 13 0;
#X connect 21 0 16 0;
#X connect 22 0 10 0;
