#N canvas 418 182 939 514 10;
#X obj 317 241 cyclone/tanh~;
#X obj 301 86 noise~;
#X obj 434 212 bsaylor/svf~ peak;
#X obj 317 187 bsaylor/svf~ peak;
#X obj 477 118 sig~ 0.96;
#X obj 350 134 * 1691.79;
#X obj 350 161 line~ \$1 100;
#X obj 467 162 * 1135;
#X obj 467 184 line~ \$1 100;
#X obj 149 102 slide res q \$1 0 1;
#X obj 172 102 slide volume v \$1 0 1;
#X obj 317 263 *~;
#X obj 318 384 outlet~;
#X obj 515 244 inlet;
#X obj 406 244 receive \$1-start;
#X msg 490 312 1;
#X obj 489 414 lop~;
#X obj 490 390 sig~;
#X obj 426 312 del 10;
#X obj 453 357 f 1;
#X obj 426 334 t f b;
#X obj 317 285 *~;
#X obj 552 469 switch~;
#X obj 490 334 t f f;
#X obj 562 394 env~;
#X obj 562 416 spigot;
#X obj 562 438 > 0.01;
#X obj 456 286 t b b b f;
#X obj 101 210 cnv 15 92 15 empty empty \$1 4 8 0 14 -233017 -66577
0;
#X msg 510 367 50000;
#X obj 104 102 slide pitch p \$1 0 5;
#X obj 145 286 psave \$1;
#X obj 126 102 slide decay d \$1 6 0.01;
#X obj 456 264 t b;
#X connect 0 0 11 0;
#X connect 1 0 3 0;
#X connect 1 0 2 0;
#X connect 2 0 0 0;
#X connect 3 0 0 0;
#X connect 4 0 2 2;
#X connect 4 0 3 2;
#X connect 5 0 6 0;
#X connect 6 0 3 1;
#X connect 7 0 8 0;
#X connect 8 0 2 1;
#X connect 9 0 4 0;
#X connect 10 0 11 1;
#X connect 11 0 21 0;
#X connect 13 0 33 0;
#X connect 14 0 33 0;
#X connect 15 0 23 0;
#X connect 16 0 21 1;
#X connect 17 0 16 0;
#X connect 18 0 20 0;
#X connect 19 0 16 1;
#X connect 19 0 25 1;
#X connect 20 0 17 0;
#X connect 20 1 19 0;
#X connect 21 0 12 0;
#X connect 21 0 24 0;
#X connect 23 0 17 0;
#X connect 23 1 22 0;
#X connect 24 0 25 0;
#X connect 25 0 26 0;
#X connect 26 0 22 0;
#X connect 27 0 18 0;
#X connect 27 1 15 0;
#X connect 27 2 29 0;
#X connect 27 3 25 1;
#X connect 29 0 16 1;
#X connect 30 0 5 0;
#X connect 30 0 7 0;
#X connect 32 0 19 1;
#X connect 33 0 27 0;
#X coords 0 -1 1 1 94 126 2 100 100;
