#N canvas 65 251 1301 504 10;
#X obj 465 178 f 500;
#X obj 443 302 sig~;
#X obj 477 303 f 1;
#X obj 443 326 lop~;
#X obj 448 203 f 1;
#X obj 375 497 outlet~;
#X obj 414 119 inlet on;
#X text 754 519 Liam Goodacre 2016 \, liam.goodacre@gmail.com;
#X obj 512 295 inlet~;
#X text 247 58 xfrom yfrom xto yto xsize ysize GOP xmargin ymargin
;
#X obj 326 20 psave \$1;
#X obj 103 79 cnv 15 84 15 empty empty \$1 5 8 0 14 -204786 -66577
0;
#X obj 372 96 receive \$1-start;
#X obj 431 250 t f b;
#X obj 431 228 del 20;
#X obj 558 354 env~;
#X obj 558 398 change;
#X obj 340 383 vd~ \$0-del 1000;
#X obj 340 360 delwrite~ \$0-del 1000;
#X obj 255 306 line~;
#X msg 255 280 \$1 50;
#X obj 354 436 *~;
#X obj 168 96 slide feedbac b \$1 0 0.99 0;
#X obj 125 96 slide decay1 d \$1 10 0.1 0;
#X obj 103 96 slide attack1 a \$1 -100 10000 1;
#X obj 147 96 slide freq f \$1 40 2000 1;
#X obj 414 153 t b b b b;
#X obj 558 376 > 0.1;
#X obj 512 421 *~;
#X obj 512 443 *~;
#X obj 102 204 tog open \$1;
#X obj 525 375 *~;
#X connect 0 0 3 1;
#X connect 1 0 3 0;
#X connect 2 0 3 1;
#X connect 3 0 28 1;
#X connect 3 0 15 0;
#X connect 4 0 1 0;
#X connect 6 0 26 0;
#X connect 8 0 28 0;
#X connect 8 0 31 0;
#X connect 12 0 26 0;
#X connect 13 0 1 0;
#X connect 13 1 2 0;
#X connect 14 0 13 0;
#X connect 15 0 27 0;
#X connect 16 0 29 1;
#X connect 17 0 21 0;
#X connect 19 0 17 0;
#X connect 20 0 19 0;
#X connect 21 0 18 0;
#X connect 21 0 5 0;
#X connect 22 0 21 1;
#X connect 23 0 2 1;
#X connect 24 0 0 1;
#X connect 25 0 20 0;
#X connect 26 1 14 0;
#X connect 26 2 4 0;
#X connect 26 3 0 0;
#X connect 27 0 16 0;
#X connect 28 0 18 0;
#X connect 28 0 29 0;
#X connect 29 0 5 0;
#X connect 30 0 31 1;
#X connect 31 0 18 0;
#X connect 31 0 5 0;
#X coords 0 -1 1 1 90 150 2 100 76;
