#N canvas 65 89 1301 687 10;
#X obj 117 109 context :Z 7 :a ' %> s = | ' :d 8 :i -1 -2 -1 -2 0 :n
' ts time ' :x 1 2 3 4 :ID 2;
#X obj 194 109 context :Z 7 :a ' %> s = | ' :d 8 :i -2 -2 -1 -3 0 :n
' ts time ' :x 1 2 3 4 :ID 3;
#X obj 158 43 context :M 1 :d 8 :h 1 :i 2 2 2 3 1 :n ' time ' :p -1
:P 1 :x 1 2 3 4 5 :ID 1;
#X obj 146 202 context :X 10 :Y 7 :Z 13 :M 1 :a ' | ' :b ' -o :o (!s)
:s | ' :i 5 6 7 8 0 0 0 0 0 0 :n ' ts- ' :p -1 :P -1 :x 1 2 3 4 :ID
4;
#X obj 84 337 context :M 1 :i 10 11 12 0 0 :z 0 :x 1 2 3 :ID 5;
#X msg 286 139 :i -2 -2 -1 -3;
#X obj 154 337 context :X 6 :M 1 :i 9 16 17 0 0 :z 0 :x 1 2 3 :ID 6
;
#X obj 224 337 context :M 1 :d 1.125 :i 19 21 22 0 0 :z 0 :x 1 2 3
:ID 7;
#X obj 296 337 context :M 1 :i 23 0 0 0 0 :z 0 :x 1 2 3 :ID 8;
#X obj 705 316 context :X 9 :Z 23 :a ' r (¬ - 1 *20) | ' :c 3 :d 1
:h 1 :j 14 15 0 :n ' snare ' :p -1 :R 63.36 :x 3 4 7 :y 1 2 :ID 9;
#N canvas 401 162 450 300 snare 0;
#X obj 191 248 outlet~;
#X obj 247 125 noise~;
#X obj 218 210 bp~ 1200 3;
#X obj 229 188 bp~ 600 2;
#X obj 231 163 bp~ 12000 6;
#X floatatom 321 131 5 0 0 0 - - -, f 5;
#X obj 315 159 * 2000;
#X floatatom 315 181 5 0 0 0 - - -, f 5;
#X connect 1 0 4 0;
#X connect 1 0 3 0;
#X connect 1 0 2 0;
#X connect 2 0 0 0;
#X connect 3 0 0 0;
#X connect 4 0 0 0;
#X connect 5 0 6 0;
#X connect 6 0 4 1;
#X connect 6 0 7 0;
#X restore 812 532 pd snare;
#X obj 109 1080 dac~;
#X floatatom 267 50 5 0 0 0 - - -, f 5;
#X msg 267 69 \; time :d \$1;
#X obj 58 406 context :H 60 :X 17 :Y 6 :Z 31 :a ' u (~ * 10) & d (¬
- 1 *20) | ' :c 1 :d 2 :e 1 :f 1 :i 0 0 0 0 0 0 0 0 0 0 0 0 0 0 0 0
11 :n ' bd ' :x 1 5 9 11 14 :ID 10 6 obj -35 -93 list split 1 11 obj
-1 -65 ols \$1 inlet outlet-x outlet-y mouse settings cutsom 9 obj
361 -103 presets \$1 :x :y :d :m 10 obj 0 27 content :x2 0.002 :y1
0.000933333 :y2 0.0019 4 obj 0 -20 mover 5 connect 0 0 1 0 5 connect
0 1 2 1 5 connect 0 2 2 2 5 connect 0 3 2 3 5 connect 0 4 2 4 5 connect
1 1 2 0;
#X obj 441 704 s~ pitch;
#X obj 441 518 r~ pitch;
#X obj 267 406 context :H 62 :X 17 :Y 6 :Z 22 :a ' u (~ * 10) & d (¬
- 1 *20) | ' :c 1 :d 2 :e 1 :f 1 :i 0 0 0 0 0 0 0 0 0 0 0 0 0 0 0 0
10 :n ' bd ' :x 1 3 5 9 11 13 14 :ID 11 6 obj -35 -93 list split 1
11 obj -1 -65 ols \$1 inlet outlet-x outlet-y mouse settings cutsom
9 obj 361 -103 presets \$1 :x :y :d :m 10 obj 0 27 content :x2 0.002
:y1 0.000933333 :y2 0.0019 4 obj 0 -20 mover 5 connect 0 0 1 0 5 connect
0 1 2 1 5 connect 0 2 2 2 5 connect 0 3 2 3 5 connect 0 4 2 4 5 connect
1 1 2 0;
#X obj 440 544 osc~;
#X obj 619 557 f-env snare 100 82 5.24807 8 131 0 1 1 0 30;
#X obj 476 406 context :H 63 :X 17 :Y 6 :Z 22 :a ' u (~ * 10) & d (¬
- 1 *20) | ' :c 1 :d 2 :e 1 :f 1 :i 0 0 0 0 0 0 0 0 0 0 0 0 0 0 0 0
11 :n ' bd ' :x 1 2 3 4 5 7 11 14 :ID 12 6 obj -35 -93 list split 1
11 obj -1 -65 ols \$1 inlet outlet-x outlet-y mouse settings cutsom
9 obj 361 -103 presets \$1 :x :y :d :m 10 obj 0 27 content :x2 0.002
:y1 0.000933333 :y2 0.0019 4 obj 0 -20 mover 5 connect 0 0 1 0 5 connect
0 1 2 1 5 connect 0 2 2 2 5 connect 0 3 2 3 5 connect 0 4 2 4 5 connect
1 1 2 0;
#X msg 476 75 context :H 56 :X 17 :Y 6 :Z 22 :a ' u (~ * 10) & d (¬
- 1 *20) | ' :c 1 :d 2 :i 0 0 0 0 0 0 0 0 0 0 0 0 0 0 0 0 11 :n ' bd
' :x 1 5 9 11 14 :ID 10 6 obj -35 -93 list split 1 11 obj -1 -65 ols
\$1 inlet outlet-x outlet-y mouse settings cutsom 9 obj 361 -103 presets
\$1 :x :y :d :m 10 obj 0 27 content :x2 0.002 :y1 0.000933333 :y2 0.0019
4 obj 0 -20 mover 5 connect 0 0 1 0 5 connect 0 1 2 1 5 connect 0 2
2 2 5 connect 0 3 2 3 5 connect 0 4 2 4 5 connect 1 1 2 0;
#X obj 131 497 context :M 1 :a ' | ' :b ' u (!u + 10) | ' :c 1 :d 2
:f 1 :h 1 :n ' bd ' :p -1 :D 2 :E 1 :R 63.36 :x 1 2 :ID 13;
#X obj 820 380 context :X 9 :Z 23 :a ' r (¬ - 1 *20) | ' :c 3 :d 1
:j 2 0 0 :n ' snare ' :p -1 :P -1 :x 3 4 5 7 :ID 14;
#X msg 572 208 context :X 9 :Z 23 :a ' r (¬ - 1 *20) | ' :c 3 :d 1
:j 2 0 0 :n ' snare ' :p -1 :P -1 :x 3 4 7 :ID 9;
#X obj 705 380 context :X 9 :Z 23 :a ' r (¬ - 1 *20) | ' :c 3 :d 1
:j 2 0 0 :n ' snare ' :p -1 :P -1 :x 3 7 :ID 15;
#X obj 820 315 context :X 9 :Z 23 :a ' r (¬ - 1 *20) | ' :c 3 :d 1
:h 1 :j 14 15 0 :n ' snare ' :p -1 :P 1 :x 2 3 5 7 :y 1 2 :ID 16;
#X obj 707 439 context :X 17 :Z 23 :a ' r (¬ - 1 *20) | ' :c 3 :d
2 :j 2 0 0 :n ' snare ' :p -1 :P -1 :x 1 2 3 4 5 7 10 13 :ID 17;
#X msg 368 71 \; c-all stop;
#X obj 957 470 context :H 38 :X 9 :Y 5 :Z 12 :a ' | ' :c 6 :d 0.32
:e 1 :f 1 :i 0 0 0 0 0 0 0 0 20 :n ' congas- ' :x 1 :ID 18 6 obj -35
-93 list split 1 11 obj -1 -65 ols \$1 inlet outlet-x outlet-y mouse
settings cutsom 9 obj 361 -103 presets \$1 :x :y :d :m 15 obj 0 19
content :l waves/open-conga.wav :x2 0.00032 :y1 0.000128 :y2 0.00032
:y -1 2 5 obj 47 83 throw~ samples 5 connect 0 1 2 1 5 connect 0 2
2 2 5 connect 0 3 2 3 5 connect 0 4 2 4 5 connect 1 1 2 0 5 connect
4 0 5 0;
#X obj 503 571 catch~ samples;
#X obj 958 334 context :M 1 :a ' \\\; \\\; \\\; \\\; ' :b ' (? 4 +
2) | ' :c 19 :d 0.5 :h 1 :i 19 19 0 21 18 :n ' level ' :p -1 :D 8 :E
1 :R 63.36 :x 1 2 3 4 5 :ID 19;
#X msg 813 33 context :H 16 :X 9 :Y 5 :Z 12 :c 6 :d 0.32 :x 6 :ID 18
6 obj -35 -93 list split 1 11 obj -1 -65 ols \$1 inlet outlet-x outlet-y
mouse settings cutsom 9 obj 361 -103 presets \$1 :x :y :d :m 16 obj
0 19 content :l waves/open-conga.wav :x2 0.00032 :y1 0.000128 :y2 0.00032
:y -1 2 5 5 obj 47 83 throw~ samples 5 connect 0 2 2 2 5 connect 0
3 2 3 5 connect 0 4 2 4 5 connect 1 1 2 0 5 connect 4 0 5 0;
#X obj 1074 469 context :H 36 :X 9 :Y 5 :Z 12 :a ' | ' :c 6 :d 0.25
:e 1 :f 1 :i 0 0 0 0 0 0 0 0 18 :n ' congas- ' :ID 20 6 obj -35 -93
list split 1 11 obj -1 -65 ols \$1 inlet outlet-x outlet-y mouse settings
cutsom 9 obj 361 -103 presets \$1 :x :y :d :m 15 obj 0 19 content :l
waves/lo-conga.wav :x2 0.00025 :y1 0.0001 :y2 0.00025 :y -1 2 5 obj
47 83 throw~ samples 5 connect 0 1 2 1 5 connect 0 2 2 2 5 connect
0 3 2 3 5 connect 0 4 2 4 5 connect 1 1 2 0 5 connect 4 0 5 0;
#X obj 1029 335 context :M 1 :a ' \\\; \\\; \\\; \\\; ' :b ' (? 4 +
2) | ' :c 19 :d 0.5 :h 1 :i 19 0 21 21 20 :n ' level ' :p -1 :D 8 :E
1 :R 63.36 :x 1 2 3 4 5 :ID 21;
#X obj 503 593 *~ 3;
#X obj 960 399 context :X 17 :Z 18 :a ' \\\; \\\; \\\; \\\; \\\; \\\;
\\\; \\\; \\\; \\\; \\\; \\\; \\\; \\\; \\\; \\\; \\\; \\\; ' :c 19
:d 2 :n ' congas ' :x 1 2 3 4 5 7 :ID 22;
#X obj 517 537 receive level-;
#X obj 939 553 receive congas-;
#X obj 939 575 print op;
#X msg 537 590 2;
#X obj 914 638 context :X 9 :Z 11 :a ' # = & h 10 | ' :c 16 :d 2 :h
1 :i -3 0 -5 0 0 -9 0 0 24 :j 24 25 0 :n ' ks ' :p -1 :P 1 :x 1 3 6
:y 1 2 :ID 23;
#X obj 705 726 ks2 ks 36 5.01187 0 71 0 39 0 91 0 39.8107 0 4.16869
0 53 54 100 90;
#X obj 932 699 context :X 17 :Z 18 :a ' # = & h -10 | ' :c 16 :d 2
:i -14 -14 -13 -11 -11 0 -13 0 -14 0 -13 -11 0 -11 0 0 23 :n ' ks '
:F 85 :x 2 3 5 7 9 11 12 14 :ID 24;
#X obj 260 870 compressor 0.818392 0.768568 0.653586 1.22449 89.7959
0 0 100;
#X obj 929 774 context :X 17 :Z 18 :a ' # = & h -10 | ' :c 16 :d 2
:i -13 -14 -13 -11 -11 0 -10 0 -11 0 -10 -11 0 -7 0 0 23 :n ' ks '
:F 85 :x 1 2 3 5 7 9 11 12 14 :ID 25;
#X obj 1011 909 scaler locrian C 2;
#X obj 1037 627 context :M 1 :h 1 :i 24 25 0 0 0 :p -1 :P 1 :ID 26
;
#X obj 885 930 context :X 6 :Z 15 :a ' # = | ' :c 31 :d 1 :i -7 0 -13
4 -11 27 :n ' bass ' :D -3 :F 37 :x 1 3 5 :ID 27;
#X obj 931 1008 f-env bass 1.65959 81 22.9087 6 382 0 3 1 1 77;
#X obj 1022 927 receive bass-;
#X obj 1022 949 t b f;
#N canvas 65 81 450 300 bass 0;
#X obj 238 53 inlet;
#X obj 244 205 outlet~;
#X floatatom 153 101 5 0 0 0 - - -, f 5;
#X obj 238 75 * 1;
#X obj 228 154 osc~;
#X obj 270 145 * 1.5;
#X obj 270 167 osc~;
#X obj 312 143 * 2;
#X obj 312 165 osc~;
#X connect 0 0 3 0;
#X connect 2 0 3 1;
#X connect 3 0 4 0;
#X connect 3 0 5 0;
#X connect 3 0 7 0;
#X connect 4 0 1 0;
#X connect 5 0 6 0;
#X connect 6 0 1 0;
#X connect 7 0 8 0;
#X connect 8 0 1 0;
#X coords 0 -1 1 1 85 15 1 100 100;
#X restore 1049 981 pd bass;
#X obj 80 719 dac~;
#X obj 38 567 2f-env bd pitch 20.893 57 26.3027 5 356 0 1 1 0 38 3.16228
8 15.1356 72 3 123 33 510;
#X obj 68 526 receive bd-;
#X obj 68 548 print o;
#X connect 7 2 40 0;
#X connect 10 0 19 2;
#X connect 12 0 13 0;
#X connect 14 4 22 1;
#X connect 16 0 18 0;
#X connect 18 0 54 2;
#X connect 19 0 44 0;
#X connect 30 0 35 0;
#X connect 35 0 44 0;
#X connect 37 0 35 1;
#X connect 38 0 39 0;
#X connect 40 0 35 1;
#X connect 42 0 44 0;
#X connect 44 0 11 1;
#X connect 44 0 11 0;
#X connect 49 0 44 0;
#X connect 50 0 51 0;
#X connect 51 0 49 0;
#X connect 51 1 52 0;
#X connect 52 0 49 2;
#X connect 54 0 44 0;
#X connect 54 0 53 0;
#X connect 54 0 53 1;
#X connect 54 1 15 0;
#X connect 55 0 56 0;
