#N canvas 459 294 632 570 10;
#X obj 117 109 context :Z 7 :a ' %> s = | ' :d 4 :i -1 -2 -1 -2 0 :n
' ts ' :x 1 2 3 4 :ID 2;
#X obj 194 109 context :Z 7 :a ' %> s = | ' :d 4 :i -2 -2 -1 -3 0 :n
' ts ' :x 1 2 3 4 :ID 3;
#X obj 158 43 context :M 1 :d 4 :h 1 :i 2 2 2 3 1 :p -1 :P 1 :x 1 2
3 4 5 :ID 1;
#X obj 146 202 context :X 10 :Y 7 :Z 13 :M 1 :a ' | ' :b ' -o :o (!s)
:s | ' :i 5 0 0 0 0 0 0 0 0 0 :n ' ts- ' :p -1 :P -1 :x 1 2 3 4 5 6
7 8 :ID 4;
#X obj 84 337 context :M 1 :i 9 0 0 0 0 :z 0 :x 1 2 3 :ID 5;
#X msg 286 139 :i -2 -2 -1 -3;
#X obj 154 337 context :M 1 :z 0 :x 1 2 3 :ID 6;
#X obj 224 337 context :M 1 :z :x 1 2 3;
#X obj 296 337 context :M 1 :z :x 1 2 3;
#X obj 504 484 f-env snare 100 82 6.60693 8 131 0 1.91 1 0 47;
#X obj 88 457 context :X 17 :Z 23 :a ' r (¬ - 1 *20) | ' :c 3 :d 2
:j 2 0 0 :n ' snare ' :p -1 :P -1 :x 1 2 4 5 8 9 11 13 14 16 :ID 9
;
#N canvas 65 85 450 300 snare 0;
#X obj 191 248 outlet~;
#X obj 226 126 noise~;
#X obj 218 210 bp~ 1200 3;
#X obj 229 188 bp~ 600 2;
#X obj 231 163 bp~ 12000 6;
#X connect 1 0 2 0;
#X connect 1 0 3 0;
#X connect 1 0 4 0;
#X connect 2 0 0 0;
#X connect 3 0 0 0;
#X connect 4 0 0 0;
#X restore 696 461 pd snare;
#X text 441 462 Still want to make this sound sharper -->;
#X obj 473 653 cyclone/tanh~;
#X obj 473 675 dac~;
#X connect 9 0 13 0;
#X connect 11 0 9 2;
#X connect 13 0 14 0;
#X connect 13 0 14 1;
