#N canvas 65 85 1301 687 10;
#X obj 146 202 context :X 10 :Y 7 :Z 13 :M 1 :a ' | ' :b ' -o :o (!s)
:s | ' :i 5 6 7 8 27 0 0 0 0 0 :n ' ts- ' :p -1 :P -1 :x 1 2 3 4 5
:ID 4;
#N canvas 401 162 450 300 snare 0;
#X obj 191 248 outlet~;
#X obj 247 125 noise~;
#X obj 218 210 bp~ 1200 3;
#X obj 229 188 bp~ 600 2;
#X obj 231 163 bp~ 12000 6;
#X floatatom 321 131 5 0 0 0 - - -, f 5;
#X obj 315 159 * 2000;
#X floatatom 315 181 5 0 0 0 - - -, f 5;
#X connect 1 0 4 0;
#X connect 1 0 3 0;
#X connect 1 0 2 0;
#X connect 2 0 0 0;
#X connect 3 0 0 0;
#X connect 4 0 0 0;
#X connect 5 0 6 0;
#X connect 6 0 4 1;
#X connect 6 0 7 0;
#X restore 812 532 pd snare;
#X obj 399 561 cyclone/tanh~;
#X obj 406 1050 dac~;
#X obj 38 587 2f-env bd pitch 20.893 54 30.1995 5 356 0 1 1 0 36 3.16228
8 15.1356 72 3 123 33 510;
#X obj 344 752 s~ pitch;
#X obj 399 515 osc~;
#X obj 619 557 f-env snare 100 82 5.24807 8 131 0 1 1 0 30;
#X obj 503 571 catch~ samples;
#X obj 503 593 *~ 3;
#X obj 517 537 receive level-;
#X msg 537 590 5;
#X floatatom 862 582 5 0 0 0 - - -, f 5;
#X obj 943 570 context :X 9 :Z 11 :a ' # = & h 10 | ' :c 16 :d 2 :h
1 :i -3 0 -5 0 0 -9 0 0 24 :j 24 25 0 :n ' ks ' :p -1 :P 1 :x 1 3 6
:y 1 2 :ID 23;
#X obj 884 634 ks2 ks 36 5.01187 0 71 0 39 0 91 0 39.8107 0 4.16869
0 53 54 100 90;
#X obj 1111 607 context :X 17 :Z 18 :a ' # = & h -10 | ' :c 16 :d 2
:i -14 -14 -13 -11 -11 0 -13 0 -14 0 -13 -11 0 -11 0 0 23 :n ' ks '
:F 85 :x 2 3 5 7 9 11 12 14 :ID 24;
#X obj 509 802 compressor 0.818392 0.768568 0.653586 1.22449 89.7959
0 0 100;
#X obj 399 537 *~ 4;
#X obj 1108 682 context :X 17 :Z 18 :a ' # = & h -10 | ' :c 16 :d 2
:i -13 -14 -13 -11 -11 0 -10 0 -11 0 -10 -11 0 -7 0 0 23 :n ' ks '
:F 85 :x 1 2 3 5 7 9 11 12 14 :ID 25;
#X obj 1190 817 scaler locrian C 2;
#X obj 1216 535 context :M 1 :h 1 :i 24 25 0 0 0 :p -1 :P 1 :ID 26
;
#X obj 1064 838 context :X 6 :Z 15 :a ' # = | ' :c 31 :d 1 :i -7 0
-13 4 -11 27 :n ' bass ' :D -3 :F 37 :x 1 3 5 :ID 27;
#X obj 1027 938 f-env bass 1.65959 81 22.9087 6 382 0 3 1 1 77;
#X obj 1201 835 receive bass-;
#X obj 1201 857 t b f;
#N canvas 65 81 450 300 bass 0;
#X obj 238 53 inlet;
#X obj 244 205 outlet~;
#X floatatom 153 101 5 0 0 0 - - -, f 5;
#X obj 238 75 * 1;
#X obj 228 154 osc~;
#X obj 270 145 * 1.5;
#X obj 270 167 osc~;
#X obj 312 143 * 2;
#X obj 312 165 osc~;
#X connect 0 0 3 0;
#X connect 2 0 3 1;
#X connect 3 0 4 0;
#X connect 3 0 5 0;
#X connect 3 0 7 0;
#X connect 4 0 1 0;
#X connect 5 0 6 0;
#X connect 6 0 1 0;
#X connect 7 0 8 0;
#X connect 8 0 1 0;
#X coords 0 -1 1 1 85 15 1 100 100;
#X restore 1228 889 pd bass;
#X obj 195 5 bng 15 250 50 0 empty empty empty 17 7 0 10 -262144 -1
-1;
#X connect 1 0 7 2;
#X connect 2 0 4 2;
#X connect 4 0 16 0;
#X connect 4 1 5 0;
#X connect 6 0 17 0;
#X connect 7 0 16 0;
#X connect 8 0 9 0;
#X connect 9 0 16 0;
#X connect 10 0 9 1;
#X connect 11 0 9 1;
#X connect 14 0 16 0;
#X connect 16 0 3 0;
#X connect 16 0 3 1;
#X connect 17 0 2 0;
#X connect 22 0 16 0;
#X connect 23 0 24 0;
#X connect 24 0 22 0;
#X connect 24 1 25 0;
#X connect 25 0 22 2;
